<?xml version="1.0" standalone="no"?>
<!DOCTYPE svg PUBLIC "-//W3C//DTD SVG 1.1//EN" "http://www.w3.org/Graphics/SVG/1.1/DTD/svg11.dtd" >
<svg xmlns="http://www.w3.org/2000/svg">
<metadata>Generated by IcoMoon</metadata>
<defs>
<font id="popo" horiz-adv-x="1024">
<font-face units-per-em="1024" ascent="960" descent="-64" />
<missing-glyph horiz-adv-x="1024" />
<glyph unicode="&#x20;" horiz-adv-x="512" d="" />
<glyph unicode="&#x21;" glyph-name="vnt-file" d="M896-64h-768c-18 0-34 6-46 18s-18 28-18 46v894c0 18 6 34 18 46s28 18 46 18h448v-254h-352c-8 0-16-4-22-10s-10-12-10-22v-64c0-8 4-16 10-22s14-10 22-10l736-2v-574c0-18-8-34-20-46s-26-18-44-18zM864 416c0 10-4 16-10 22s-14 10-22 10h-608c-8 0-16-4-22-10s-10-12-10-22v-64c0-8 4-16 10-22s14-10 22-10h608c8 0 16 4 22 10s10 14 10 22zM864 160c0 10-4 18-10 24s-14 8-22 8h-608c-8 0-16-2-22-8s-10-14-10-24v-64c0-8 4-16 10-22s14-10 22-10h608c8 0 16 4 22 10s10 14 10 22zM640 960c18 0 32-6 44-18l256-258c12-12 20-28 20-46h-320z" />
<glyph unicode="&#x22;" glyph-name="vnt-ip" d="M896-64h-64c-18 0-32 6-44 18-14 14-20 28-20 46s6 34 20 46c12 12 26 18 44 18h32c8 0 16 4 22 10s10 14 10 22v32c0 18 6 34 18 46s28 18 46 18c18 0 32-6 46-18 12-12 18-28 18-46v-64c0-36-12-66-38-90-24-26-54-38-90-38zM960 704c-18 0-34 6-46 18-12 14-18 28-18 46v32c0 8-4 16-10 22s-14 10-22 10h-32c-18 0-32 6-44 18-14 12-20 28-20 46s6 34 20 46c12 12 26 18 44 18h64c36 0 66-12 90-38 26-24 38-54 38-90v-64c0-18-6-34-18-46s-28-18-46-18zM832 512c0-54-18-98-56-136s-82-56-136-56h-64v-64c0-18-6-34-18-46s-28-18-46-18c-18 0-32 6-44 18-14 14-20 28-20 46v384c0 18 6 34 20 46 12 12 26 18 44 18h128c54 0 98-18 136-56s56-82 56-136zM640 576h-64v-128h64c18 0 32 6 46 18 12 14 18 28 18 46s-6 34-18 46c-12 12-28 18-46 18zM256 192c-18 0-32 6-44 18-14 14-20 28-20 46v384c0 18 6 34 20 46 12 12 26 18 44 18s32-6 46-18c12-12 18-28 18-46v-384c0-18-6-34-18-46s-28-18-46-18zM192 832h-32c-8 0-16-4-22-10s-10-14-10-22v-32c0-18-6-34-18-46s-28-18-46-18c-18 0-32 6-44 18-14 14-20 28-20 46v64c0 36 12 66 38 90 24 26 54 38 90 38h64c18 0 32-6 46-18 12-12 18-28 18-46s-6-32-18-46c-12-12-28-18-46-18zM64 192c18 0 34-6 46-18s18-28 18-46v-32c0-8 4-16 10-22s14-10 22-10h32c18 0 32-6 46-18 12-12 18-28 18-46s-6-32-18-46c-14-12-28-18-46-18h-64c-36 0-66 12-90 38-26 24-38 54-38 90v64c0 18 6 34 20 46 12 12 26 18 44 18z" />
<glyph unicode="&#x23;" glyph-name="vnt-host3" d="M832-64h-640c-36 0-66 12-90 38-26 24-38 54-38 90v768c0 36 12 66 38 90 24 26 54 38 90 38h640c36 0 66-12 90-38 26-24 38-54 38-90v-768c0-36-12-66-38-90-24-26-54-38-90-38zM832 224c0 22-6 40-18 56-14 18-30 28-50 34 46 58 68 124 68 198 0 58-14 112-42 160-30 50-68 88-118 116-48 30-102 44-160 44s-112-14-160-44c-50-28-88-66-116-116-30-48-44-102-44-160 0-74 22-140 68-198-20-6-36-16-48-34-14-16-20-34-20-56v-64c0-26 10-50 28-68s42-28 68-28h448c26 0 50 10 68 28s28 42 28 68zM694 330l-136 136c-14-12-28-18-46-18s-34 6-46 18c-12 12-18 28-18 46s6 32 18 44c12 14 28 20 46 20v192c70 0 132-26 182-76s74-110 74-180c0-70-24-132-74-182z" />
<glyph unicode="&#x24;" glyph-name="vnt-folder" d="M896 0h-768c-36 0-66 12-90 38-26 24-38 54-38 90v512c0 18 6 32 18 44 12 14 28 20 46 20h480l46 84c4 12 14 24 28 32s28 12 44 12h240c16 0 32-4 46-12s22-20 28-32l48-84v-576c0-36-12-66-38-90-24-26-54-38-90-38zM896 640c0 18-6 32-18 44-14 14-28 20-46 20h-128c-18 0-34-6-46-20-12-12-18-26-18-44s-10-34-28-46c-18-12-42-18-68-18h-384c-8 0-16-4-22-10s-10-14-10-22v-384c0-8 4-16 10-22s14-10 22-10h704c8 0 16 4 22 10s10 14 10 22zM46 852c4 12 14 24 28 32s28 12 44 12h240c16 0 32-4 46-12s22-20 28-32l48-84h-480z" />
<glyph unicode="&#x25;" glyph-name="vnt-folder2" d="M1024 128c0-36-12-66-38-90-24-26-54-38-90-38h-768c-36 0-66 12-90 38-26 24-38 54-38 90v512c0 18 6 32 18 44 12 14 28 20 46 20h480c0 8 4 18 12 32s14 26 22 36l12 16c4 12 14 24 28 32s28 12 44 12h240c16 0 32-4 46-12s22-20 28-32c32-38 48-66 48-84zM46 852c4 12 14 24 28 32s28 12 44 12h240c16 0 32-4 46-12s22-20 28-32l48-84h-480z" />
<glyph unicode="&#x26;" glyph-name="vnt-network" d="M992 448h-160v-256h64c18 0 32-6 46-20 12-12 18-26 18-44v-128c0-18-6-34-18-46-14-12-28-18-46-18h-192c-18 0-34 6-46 18s-18 28-18 46v128c0 18 6 32 18 44 12 14 28 20 46 20h64v256h-448v-256h64c18 0 32-6 46-20 12-12 18-26 18-44v-128c0-18-6-34-18-46-14-12-28-18-46-18h-192c-18 0-34 6-46 18s-18 28-18 46v128c0 18 6 32 18 44 12 14 28 20 46 20h64v256h-224c-8 0-16 4-22 10s-10 14-10 22c0 8 4 16 10 22s14 10 22 10h480v192h-64c-18 0-34 6-46 18s-18 28-18 46v128c0 18 6 32 18 44 12 14 28 20 46 20h192c18 0 32-6 46-20 12-12 18-26 18-44v-128c0-18-6-34-18-46-14-12-28-18-46-18h-64v-192h416c8 0 16-4 22-10s10-14 10-22c0-8-4-16-10-22s-14-10-22-10z" />
<glyph unicode="&#x27;" glyph-name="vnt-404" d="M512-64c-70 0-136 14-198 40-64 28-118 64-164 110s-82 100-110 162c-26 64-40 130-40 200s14 136 40 198c28 64 64 118 110 164s100 82 164 110c62 26 128 40 198 40s136-14 200-40c62-28 116-64 162-110s82-100 110-164c26-62 40-128 40-198s-14-136-40-200c-28-62-64-116-110-162s-100-82-162-110c-64-26-130-40-200-40zM320 544c0 8-4 16-10 22s-14 10-22 10c-8 0-16-4-22-10s-10-14-10-22v-96h-64v96c0 8-4 16-10 22s-14 10-22 10c-8 0-16-4-22-10s-10-14-10-22v-128c0-8 2-14 8-20 4-6 10-10 18-12 2 0 4 0 6 0h96v-96c0-8 4-16 10-22s14-10 22-10c8 0 16 4 22 10s10 14 10 22zM640 512c0 18-6 32-18 44-14 14-28 20-46 20h-128c-18 0-32-6-44-20-14-12-20-26-20-44v-192c0-18 6-34 20-46 12-12 26-18 44-18h128c18 0 32 6 46 18 12 12 18 28 18 46zM864 576c-8 0-16-4-22-10s-10-14-10-22v-96h-64v96c0 8-4 16-10 22s-14 10-22 10c-8 0-16-4-22-10s-10-14-10-22v-128c0-8 2-14 8-20 4-6 10-10 18-12 2 0 4 0 6 0h96v-96c0-8 4-16 10-22s14-10 22-10c8 0 16 4 22 10s10 14 10 22v256c0 8-4 16-10 22s-14 10-22 10zM448 512h128v-192h-128z" />
<glyph unicode="&#x28;" glyph-name="vnt-php" d="M512 64c-92 0-178 18-256 52-80 34-142 80-188 140-46 58-68 122-68 192s22 134 68 192c46 60 108 106 188 140 78 34 164 52 256 52s178-18 258-52c78-34 140-80 186-140 46-58 68-122 68-192s-22-134-68-192c-46-60-108-106-186-140-80-34-166-52-258-52zM288 576h-80c-4 0-8-2-12-4-2-4-4-8-4-12l-64-224c0-4 2-8 4-12 4-2 8-4 12-4h32c4 0 8 2 12 4 2 4 4 8 4 12l14 48h50c16 0 30 0 44 2 12 2 26 6 40 12s24 16 32 30c8 14 12 32 12 52 0 26-10 50-28 68s-42 28-68 28zM544 576h-14l14 48c0 4-2 8-4 12-4 2-8 4-12 4h-32c-4 0-8-2-12-4-2-4-4-8-4-12l-64-224c0-4 2-8 4-12 4-2 8-4 12-4h32c4 0 8 2 12 4 2 4 4 8 4 12l32 112c30-2 50-12 58-34l-26-78c0-4 2-8 4-12 4-2 8-4 12-4h32c4 0 8 2 12 4 2 4 4 8 4 12l32 96c0 4-2 8-4 10-6 20-18 38-34 50-18 14-36 20-58 20zM800 576h-80c-4 0-8-2-12-4-2-4-4-8-4-12l-64-224c0-4 2-8 4-12 4-2 8-4 12-4h32c4 0 8 2 12 4 2 4 4 8 4 12l14 48h50c16 0 30 0 44 2 12 2 26 6 40 12s24 16 32 30c8 14 12 32 12 52 0 26-10 50-28 68s-42 28-68 28zM800 448h-64l18 64h46c8 0 16-4 22-10s10-14 10-22c0-8-4-16-10-22s-14-10-22-10zM288 448h-64l18 64h46c8 0 16-4 22-10s10-14 10-22c0-8-4-16-10-22s-14-10-22-10z" />
<glyph unicode="&#x29;" glyph-name="vnt-addon" d="M896 192c-24 0-44 6-64 18s-34 26-46 46h-18v-256c0-18-6-34-18-46-14-12-28-18-46-18h-256v18c20 12 34 26 46 46s18 40 18 64c0 36-12 66-38 90-24 26-54 38-90 38s-66-12-90-38c-26-24-38-54-38-90 0-24 6-44 18-64s26-34 46-46v-18h-256c-18 0-32 6-44 18-14 12-20 28-20 46v256h18c12-20 26-34 46-46s40-18 64-18c36 0 66 12 90 38 26 24 38 54 38 90s-12 66-38 90c-24 26-54 38-90 38-24 0-44-6-64-18s-34-26-46-46h-18v256c0 18 6 32 20 44 12 14 26 20 44 20h256v18c-20 12-34 26-46 46s-18 40-18 64c0 36 12 66 38 90 24 26 54 38 90 38s66-12 90-38c26-24 38-54 38-90 0-24-6-44-18-64s-26-34-46-46v-18h256c18 0 32-6 46-20 12-12 18-26 18-44v-256h18c12 20 26 34 46 46s40 18 64 18c36 0 66-12 90-38 26-24 38-54 38-90s-12-66-38-90c-24-26-54-38-90-38z" />
<glyph unicode="&#x2a;" glyph-name="vnt-cloudu" d="M768 128h-64v-64c0-36-12-66-38-90-24-26-54-38-90-38h-64c-36 0-66 12-90 38-26 24-38 54-38 90v64h-160c-62 0-114 22-158 66s-66 96-66 158c0 38 10 74 28 106s42 60 72 80c22-46 54-84 96-116s88-54 140-64c-44 26-78 60-104 104s-40 94-40 146c0 80 28 148 84 204s124 84 204 84c58 0 112-16 160-48s82-74 104-126c-46-14-84-40-118-74s-56-76-70-122c24 36 54 64 92 84 36 20 76 30 120 30 70 0 132-26 182-76s74-110 74-180c0-70-24-132-74-182s-112-74-182-74zM762 230l-198 208c-6 6-12 10-20 10s-14-4-18-10l-200-208c-6-6-6-14-4-24s4-14 10-14h116v-128c0-18 6-34 18-46s28-18 46-18h64c18 0 34 6 46 18s18 28 18 46v128h116c6 0 10 4 12 14s0 18-6 24z" />
<glyph unicode="&#x2b;" glyph-name="vnt-cloudf" d="M768 64h-544c-62 0-114 22-158 66s-66 96-66 158c0 38 10 74 28 106s42 60 72 80c22-46 54-84 96-116s88-54 140-64c-44 26-78 60-104 104s-40 94-40 146c0 80 28 148 84 204s124 84 204 84c58 0 112-16 160-48s82-74 104-126c-46-14-84-40-118-74s-56-74-70-122c24 36 54 64 92 84 36 20 76 30 120 30 70 0 132-26 182-76s74-110 74-180c0-70-24-132-74-182s-112-74-182-74z" />
<glyph unicode="&#x2c;" glyph-name="vnt-cloudr" d="M876 216l20-80c0-14-4-28-10-46-8-18-16-26-24-26h-64c-22-38-54-70-92-94-40-22-84-34-130-34-54 0-102 14-144 44-44 30-74 68-94 116-8 2-14 6-18 10l-52 52c-10 10-14 20-10 34h-34c-62 0-114 22-158 66s-66 96-66 158c0 38 10 74 28 106s42 60 72 80c22-46 54-84 96-116s88-54 140-64c-44 26-78 60-104 104s-40 94-40 146c0 80 28 148 84 204s124 84 204 84c58 0 112-16 160-48s82-74 104-126c-46-14-84-40-118-74s-56-76-70-122c24 36 54 64 92 84 36 20 76 30 120 30 70 0 132-26 182-76s74-110 74-180c0-50-14-96-40-138-28-42-64-74-108-94zM576 384c-42 0-78-12-110-36-34-24-56-56-70-94h-64c-8-8-12-16-12-28s4-22 12-30l52-68c4-4 8-8 14-10h2c8-2 16-4 26-2 8 2 16 6 22 12l54 68c6 8 10 18 10 30s-4 20-10 28h-36c10 20 26 36 46 48s40 18 64 18c6 0 14 0 22-2l42 54c-22 8-44 12-64 12zM822 186l-54 70c-4 4-8 6-14 8-8 4-18 6-28 4s-16-6-22-12l-52-70c-8-8-12-18-12-30 0-10 4-20 12-28h34c-12-20-26-34-46-46s-40-18-64-18c-6 0-14 0-22 2l-40-56c20-6 42-10 62-10 42 0 78 12 112 36 32 24 54 54 68 92h66c6 8 10 18 10 28 0 12-4 22-10 30z" />
<glyph unicode="&#x2d;" glyph-name="vnt-cloudd" d="M844 202l-248-258c-6-6-24-8-52-8s-46 2-50 8l-238 248h-32c-62 0-114 22-158 66s-66 96-66 158c0 38 10 74 28 106s42 60 72 80c22-46 54-86 96-118s88-52 140-62c-44 26-78 60-104 104s-40 94-40 146c0 80 28 148 84 204s124 84 204 84c58 0 112-16 160-48s82-74 104-126c-46-14-84-40-118-74s-56-76-70-122c24 36 54 62 92 82 36 20 76 30 120 30 70 0 132-24 182-74s74-110 74-182c0-56-16-106-50-152-34-44-78-74-130-92zM756 254h-116v130c0 18-6 32-18 44-12 14-28 20-46 20h-64c-18 0-34-6-46-20-12-12-18-26-18-44v-130h-116c-6 0-8-4-10-14-2-8-2-16 4-22l200-210c4-6 10-8 18-8s14 2 20 8l198 210c6 6 8 14 6 22-2 10-6 14-12 14z" />
<glyph unicode="&#x2e;" glyph-name="vnt-serverwifi" d="M896-64h-768c-36 0-66 12-90 38-26 24-38 54-38 90v128c0 36 12 66 38 90 24 26 54 38 90 38h128v210c-20 12-34 26-46 46s-18 40-18 64c0 36 12 66 38 90 24 26 54 38 90 38s66-12 90-38c26-24 38-54 38-90 0-24-6-44-18-64s-26-34-46-46v-210h512c36 0 66-12 90-38 26-24 38-54 38-90v-128c0-36-12-66-38-90-24-26-54-38-90-38zM192 192c-18 0-32-6-44-20-14-12-20-26-20-44s6-34 20-46c12-12 26-18 44-18s34 6 46 18c12 12 18 28 18 46s-6 32-18 44c-12 14-28 20-46 20zM448 192c-18 0-32-6-44-20-14-12-20-26-20-44s6-34 18-46c12-12 28-18 46-18s34 6 46 18c12 12 18 28 18 46s-6 32-18 44c-12 14-28 20-46 20zM832 192h-128c-18 0-34-6-46-20-12-12-18-26-18-44s6-34 18-46c12-12 28-18 46-18h128c18 0 32 6 46 18 12 12 18 28 18 46s-6 32-18 44c-14 14-28 20-46 20zM576 640c-18 0-34 6-46 18s-18 28-18 46c-12 38-38 68-74 92s-76 36-118 36c-42 0-82-12-118-36s-62-54-74-92c0-18-6-34-18-46-14-12-28-18-46-18s-32 6-44 18c-14 12-20 28-20 46 0 40 16 82 50 122s76 72 126 96c50 26 98 38 144 38s94-12 144-38c50-24 92-56 126-96s50-82 50-122c0-18-6-34-18-46s-28-18-46-18z" />
<glyph unicode="&#x2f;" glyph-name="vnt-network2" d="M960-64h-64c-18 0-34 6-46 18s-18 28-18 46v64c0 18 6 32 18 44 12 14 28 20 46 20v256h-320v-256c18 0 32-6 46-20 12-12 18-26 18-44v-64c0-18-6-34-18-46-14-12-28-18-46-18h-64c-18 0-34 6-46 18s-18 28-18 46v64c0 18 6 32 18 44 12 14 28 20 46 20v256h-320v-256c18 0 32-6 46-20 12-12 18-26 18-44v-64c0-18-6-34-18-46-14-12-28-18-46-18h-64c-18 0-34 6-46 18s-18 28-18 46v64c0 18 6 32 18 44 12 14 28 20 46 20v288c0 8 4 16 10 22s14 10 22 10h352v192h-64c-18 0-34 6-46 18s-18 28-18 46v192c0 18 6 32 18 44 12 14 28 20 46 20h192c18 0 32-6 46-20 12-12 18-26 18-44v-192c0-18-6-34-18-46-14-12-28-18-46-18h-64v-192h352c8 0 16-4 22-10s10-14 10-22v-288c18 0 32-6 46-20 12-12 18-26 18-44v-64c0-18-6-34-18-46-14-12-28-18-46-18z" />
<glyph unicode="&#x30;" glyph-name="vnt-chats" d="M704-64c-58 0-112 12-160 34-50 24-90 54-118 94s-42 82-42 128c0 46 14 90 42 128 28 40 68 72 118 94 48 22 102 34 160 34 24 0 48-2 74-8 14 24 30 46 50 68 20 24 36 40 50 50l18 18v-180c40-24 70-52 94-88 22-36 34-74 34-116 0-46-14-88-42-128-30-40-68-70-118-94-48-22-102-34-160-34zM672 512c-88 0-160-18-214-52s-92-82-114-140c-30 4-60 10-88 18-14-24-32-48-54-74-22-24-38-42-52-54l-22-18v208c-40 30-72 66-94 108s-34 86-34 132c0 58 18 112 52 160 34 50 80 88 140 116 58 30 122 44 192 44s134-14 194-44c58-28 106-66 140-116 34-48 50-102 50-160 0-46-10-88-32-130-20 2-42 2-64 2z" />
<glyph unicode="&#x31;" glyph-name="vnt-magic2" d="M1006-44c-14-12-28-20-46-20s-32 4-44 16l-642 644c-12 12-18 26-16 44 0 18 6 32 20 44 12 14 26 20 44 20 18 2 32-4 44-16l642-644c12-12 18-26 18-44-2-16-8-32-20-44zM946 704l-80 46-80-46 18 94-66 64 90 12 38 88 38-88 90-12-66-64zM148 722l-130 130c-12 12-18 26-16 44 0 18 6 32 20 44 12 14 26 20 44 22 18 0 32-6 44-18l130-130c12-12 16-26 16-44s-8-32-20-46c-12-12-28-18-44-20-18 0-32 6-44 18zM122 490l40 86 38-86 90-12-66-64 16-94-78 46-80-46 16 94-64 64zM378 106l40 86 38-86 90-12-66-66 16-92-78 46-80-46 18 92-66 66z" />
<glyph unicode="&#x32;" glyph-name="vnt-spro" d="M960-64h-896c-18 0-32 6-44 18-14 14-20 28-20 46v320c0 18 6 34 20 46 12 12 26 18 44 18h896c18 0 32-6 46-18 12-12 18-28 18-46v-320c0-18-6-32-18-46-14-12-28-18-46-18zM960 288c0 8-4 16-10 22s-14 10-22 10h-832c-8 0-16-4-22-10s-10-14-10-22v-256c0-8 4-16 10-22s14-10 22-10h832c8 0 16 4 22 10s10 14 10 22zM768 64c-18 0-34 6-46 18-12 14-18 28-18 46s6 34 18 46c12 12 28 18 46 18s34-6 46-18c12-12 18-28 18-46s-6-32-18-46c-12-12-28-18-46-18zM576 64c-18 0-32 6-44 18-14 14-20 28-20 46s6 34 20 46c12 12 26 18 44 18s34-6 46-18c12-12 18-28 18-46s-6-32-18-46c-12-12-28-18-46-18zM384 64c-18 0-34 6-46 18-12 14-18 28-18 46s6 34 18 46c12 12 28 18 46 18s34-6 46-18c12-12 18-28 18-46s-6-32-18-46c-12-12-28-18-46-18zM192 64c-18 0-34 6-46 18-12 14-18 28-18 46s6 34 18 46c12 12 28 18 46 18s34-6 46-18c12-12 18-28 18-46s-6-32-18-46c-12-12-28-18-46-18zM960 512h-896c-18 0-32 6-44 18-14 14-20 28-20 46v320c0 18 6 34 20 46 12 12 26 18 44 18h896c18 0 32-6 46-18 12-12 18-28 18-46v-320c0-18-6-32-18-46-14-12-28-18-46-18zM960 864c0 8-4 16-10 22s-14 10-22 10h-832c-8 0-16-4-22-10s-10-14-10-22v-256c0-8 4-16 10-22s14-10 22-10h832c8 0 16 4 22 10s10 14 10 22zM160 640c-8 0-16 4-22 10s-10 14-10 22v128c0 8 4 16 10 22s14 10 22 10c8 0 16-4 22-10s10-14 10-22v-128c0-8-4-16-10-22s-14-10-22-10z" />
<glyph unicode="&#x33;" glyph-name="vnt-cal2" d="M896-66h-704c-36 0-66 12-90 38-26 24-38 54-38 90v640c0 36 12 66 38 90 24 26 54 38 90 38h704c36 0 66-12 90-38 26-24 38-54 38-90v-640c0-36-12-66-38-90-24-26-54-38-90-38zM960 190v448c0 18-6 32-18 44-12 14-28 20-46 20h-704c-18 0-34-6-46-20-12-12-18-26-18-44v-512c0-18 6-32 18-46 12-12 28-18 46-18h704c18 0 34 6 46 18 12 14 18 28 18 46zM864 126h-64c-8 0-16 4-22 10s-10 14-10 22v32h128v-32c0-8-4-16-10-22s-14-10-22-10zM768 446h128v-192h-128zM768 606c0 8 4 16 10 22s14 10 22 10h64c8 0 16-4 22-10s10-14 10-22v-96h-128zM576 254v192h128v-192zM576 606c0 8 4 16 10 22s14 10 22 10h64c10 0 18-4 24-10s8-14 8-22v-96h-128zM384 254v192h128v-192zM384 606c0 8 4 16 10 22s12 10 22 10h64c8 0 16-4 22-10s10-14 10-22v-96h-128zM192 254v192h128v-192zM192 606c0 8 4 16 10 22s14 10 22 10h64c8 0 16-4 22-10s10-14 10-22v-96h-128zM320 158c0-8-4-16-10-22s-14-10-22-10h-64c-8 0-16 4-22 10s-10 14-10 22v32h128zM512 190v-32c0-8-4-16-10-22s-14-10-22-10h-64c-10 0-16 4-22 10s-10 14-10 22v32zM704 190v-32c0-8-2-16-8-22s-14-10-24-10h-64c-8 0-16 4-22 10s-10 14-10 22v32z" />
<glyph unicode="&#x34;" glyph-name="cnt-useri" d="M960 64h-896c-18 0-32 6-44 18-14 14-20 28-20 46v640c0 18 6 32 20 44 12 14 26 20 44 20h896c18 0 32-6 46-20 12-12 18-26 18-44v-640c0-18-6-34-18-46-14-12-28-18-46-18zM352 346v16c64 26 96 98 96 214 0 42-14 74-44 96s-68 32-116 32c-48 0-86-10-116-32s-44-54-44-96c0-114 32-184 96-212v-18c-46-8-84-24-114-46s-46-46-46-74c0-8 8-14 22-20 14-4 34-8 62-10s52-4 70-4c18 0 40 0 70 0s54 0 72 0c18 0 40 2 68 4s48 6 62 10c14 6 22 12 22 20 0 28-16 52-46 74s-68 38-114 46zM928 704h-256c-8 0-16-4-22-10s-10-14-10-22c0-8 4-16 10-22s14-10 22-10h256c8 0 16 4 22 10s10 14 10 22c0 8-4 16-10 22s-14 10-22 10zM640 480c0-8 4-16 10-22s14-10 22-10h128c8 0 16 4 22 10s10 14 10 22c0 8-4 16-10 22s-14 10-22 10h-128c-8 0-16-4-22-10s-10-14-10-22zM928 320h-256c-8 0-16-4-22-10s-10-14-10-22c0-8 4-16 10-22s14-10 22-10h256c8 0 16 4 22 10s10 14 10 22c0 8-4 16-10 22s-14 10-22 10z" />
<glyph unicode="&#x35;" glyph-name="vnt-award" d="M802 576l96-104-136-42 32-136-126 28 102-324c0-22-10-40-28-52l-52 52-62-62c-16 4-28 10-36 22-10 12-14 26-14 40l-66 206-64-206c0-14-4-28-14-40s-22-18-36-22l-62 62-52-52c-18 12-28 30-28 52l102 324-126-28 32 136-136 42 96 104-96 102 136 42-32 136 136-32 42 136 102-96 104 96 42-136 136 32-32-136 136-42zM512 768c-52 0-98-18-136-56s-56-84-56-136c0-54 18-98 56-136s84-58 136-58c54 0 98 20 136 58s58 82 58 136c0 52-20 98-58 136s-82 56-136 56z" />
<glyph unicode="&#x36;" glyph-name="vnt-award2" d="M678 366l90-366-128-64-86 386c-16-2-30-2-42-2s-26 0-42 2l-86-386-128 64 92 366c-48 28-86 68-114 116s-42 100-42 158c0 58 14 112 44 160 28 50 66 88 116 116 48 30 102 44 160 44s112-14 160-44c50-28 88-66 118-116 28-48 42-102 42-160s-14-110-42-158c-28-48-66-88-112-116z" />
<glyph unicode="&#x37;" glyph-name="vnt-filrs" d="M896-64h-312l8 4c8 4 12 12 14 20s2 16-2 24l-46 80c8 10 14 22 20 32h94c8 0 16 4 22 10s10 14 10 22v192c0 10-4 16-10 22s-14 10-22 10h-94c-6 12-12 22-20 34l46 78c4 8 4 18 2 26s-6 14-14 18l-164 96c-8 4-16 6-24 4-10-2-16-8-20-16l-46-82c-2 0-4 2-8 2s-8 0-10 0c-2 0-6 0-10 0s-8-2-8-2l-46 82c-4 8-12 14-20 16s-16 0-24-4l-148-86v376c0 18 6 34 18 46s28 18 46 18h448v-352c0-8 2-16 8-22s14-10 24-10h352v-574c0-18-8-34-20-46s-26-18-44-18zM640 960c16 0 32-6 44-18l256-258c12-12 20-28 20-46h-320zM178 352l-46 82c-4 8-6 16-4 24s6 16 14 20l54 30c6 4 14 6 22 4s14-8 18-16l48-84c12 2 24 4 36 4 10 0 22-2 36-4l48 84c4 8 10 14 18 16s16 0 24-4l52-30c6-4 12-12 14-20s0-16-4-24l-46-82c16-20 30-40 38-64h108c8 0 16-2 22-8s10-14 10-24v-64c0-8-4-16-10-22s-14-10-22-10h-108c-8-22-22-44-38-64l46-82c4-8 6-16 4-24s-8-14-14-18l-52-32c-8-4-16-4-24-2s-14 6-18 14l-48 84c-14-2-26-4-36-4-12 0-24 2-36 4l-48-84c-4-8-10-12-18-14s-16-2-22 2l-54 32c-8 4-12 10-14 18s0 16 4 24l46 82c-18 20-30 42-38 64h-108c-8 0-16 4-22 10s-10 14-10 22v64c0 10 4 18 10 24s14 8 22 8h108c8 24 20 44 38 64zM320 160c18 0 32 8 46 20 12 12 18 26 18 44s-6 34-18 46c-14 12-28 18-46 18s-34-6-46-18c-12-12-18-28-18-46s6-32 18-44c12-12 28-20 46-20z" />
<glyph unicode="&#x38;" glyph-name="vnt-css3" d="M896 64l-384-128-384 128-64 896h896zM192 832l12-128h436v-128h-424l12-128h412v-192l-128-32-128 32v128h-150l22-256 256-64 256 64 64 704z" />
<glyph unicode="&#x39;" glyph-name="vnt-fire2" d="M704-64c14 10 26 22 36 36s16 30 20 48c4 18 6 34 6 46 2 14 2 30 2 50 0 26-6 52-20 78s-32 50-52 70c-22 20-42 38-62 52s-40 26-58 36c-36 18-66 40-90 68-26 28-38 58-38 92-12 0-24-10-40-30s-24-42-24-66c0-12 6-26 20-40 12-14 26-26 42-38 16-10 30-24 42-40s20-32 20-48c0-32-8-62-24-86s-38-36-68-36c-30 0-54 12-70 38-18 26-26 56-26 90-12-6-22-14-30-24-10-10-16-18-20-28-4-8-8-20-10-36-2-14-4-26-4-34s0-22 0-38c0-76 22-130 64-160-44 8-80 20-112 36s-58 34-76 52c-18 20-32 42-42 70-10 26-18 52-20 76-4 26-6 54-6 86 0 60 32 138 94 232s126 166 194 216c4 4 12 10 28 22s30 24 42 36c14 12 28 28 42 46 14 20 26 42 36 68 8 26 12 54 12 84 8 0 20-4 34-12s28-18 42-32c14-12 26-30 36-50 10-22 16-44 16-66s-4-42-10-62c-6-18-14-34-22-46s-16-26-22-40c-6-16-10-30-10-44 0-26 10-50 28-68s42-28 68-28c24 0 44 6 62 16 18 12 28 28 34 48 58-42 106-94 140-152s52-114 52-168c0-30-2-60-8-90s-14-58-26-86c-14-28-30-54-48-74-20-20-44-38-74-50-30-14-62-20-100-20z" />
<glyph unicode="&#x3a;" glyph-name="vnt-power" d="M576 132v-132c0-18-6-34-18-46-14-12-28-18-46-18s-34 6-46 18c-12 12-18 28-18 46v132c-72 12-136 38-194 78-60 42-106 94-140 158s-50 134-50 208c0 18 6 32 18 44 12 14 28 20 46 20h768c18 0 32-6 46-20 12-12 18-26 18-44 0-74-16-144-50-208s-80-116-138-158c-60-42-124-68-196-78zM704 704v192c0 18 6 32 18 44 12 14 28 20 46 20s32-6 46-20c12-12 18-26 18-44v-192zM192 704v192c0 18 6 32 18 44 12 14 28 20 46 20s32-6 46-20c12-12 18-26 18-44v-192z" />
<glyph unicode="&#x3b;" glyph-name="vnt-netcable" d="M960 192h-64v-64c0-18-6-34-18-46-14-12-28-18-46-18h-64v-64c0-18-6-34-18-46s-28-18-46-18h-320c-18 0-32 6-44 18-14 12-20 28-20 46v64h-64c-18 0-34 6-46 18s-18 28-18 46v64h-64c-18 0-32 6-44 18-14 12-20 28-20 46v640c0 18 6 32 20 44 12 14 26 20 44 20h832c18 0 34-6 46-20 12-12 18-26 18-44v-640c0-18-6-34-18-46s-28-18-46-18zM960 800c0 8-4 16-10 22s-14 10-22 10h-96v-96c0-8-4-16-10-22s-14-10-22-10c-8 0-16 4-22 10s-10 14-10 22v96h-64v-96c0-8-4-16-10-22s-14-10-22-10c-8 0-16 4-22 10s-10 14-10 22v96h-64v-96c0-8-4-16-10-22s-14-10-22-10c-8 0-16 4-22 10s-10 14-10 22v96h-64v-96c0-8-4-16-10-22s-14-10-22-10c-8 0-16 4-22 10s-10 14-10 22v96h-64v-96c0-8-4-16-10-22s-14-10-22-10c-8 0-16 4-22 10s-10 14-10 22v96h-96c-8 0-16-4-22-10s-10-14-10-22v-448c0-8 4-16 10-22s14-10 22-10h64c8 0 16-4 22-10s10-14 10-22v-64c0-8 4-16 10-22s14-10 22-10h64c8 0 16-4 22-10s10-14 10-22v-64c0-8 4-16 10-22s14-10 22-10h256c8 0 16 4 22 10s10 14 10 22v64c0 8 4 16 10 22s14 10 22 10h64c8 0 16 4 22 10s10 14 10 22v64c0 8 4 16 10 22s14 10 22 10h64c8 0 16 4 22 10s10 14 10 22z" />
<glyph unicode="&#x3c;" glyph-name="vnt-foldertree" d="M640 224c0 8 4 16 10 22s14 10 22 10h128c8 0 16-4 22-10s10-14 10-22v-32h160c8 0 16-4 22-10s10-14 10-22v-192c0-8-4-16-10-22s-14-10-22-10h-320c-8 0-16 4-22 10s-10 14-10 22v32h-416c-8 0-16 4-22 10s-10 14-10 22v544h-160c-8 0-16 4-22 10s-10 14-10 22v320c0 8 4 16 10 22s14 10 22 10h192c8 0 16-4 22-10s10-14 10-22v-32h160c8 0 16-4 22-10s10-14 10-22v-256c0-8-4-16-10-22s-14-10-22-10h-160v-128h384v160c0 8 4 16 10 22s14 10 22 10h128c8 0 16-4 22-10s10-14 10-22v-32h160c8 0 16-4 22-10s10-14 10-22v-192c0-8-4-16-10-22s-14-10-22-10h-320c-8 0-16 4-22 10s-10 14-10 22v32h-384v-320h384z" />
<glyph unicode="&#x3d;" glyph-name="vnt-bpower" d="M992 320h-96v-128c0-36-12-66-38-90-24-26-54-38-90-38h-640c-36 0-66 12-90 38-26 24-38 54-38 90v512c0 36 12 66 38 90 24 26 54 38 90 38h640c36 0 66-12 90-38 26-24 38-54 38-90v-128h96c8 0 16-4 22-10s10-14 10-22v-192c0-8-4-16-10-22s-14-10-22-10zM768 646c0 16-6 30-16 40-12 12-26 18-42 18h-522c-18 0-32-6-42-18-12-10-18-24-18-40v-396c0-16 6-30 18-42 10-10 24-16 42-16h522c16 0 30 6 42 16 10 12 16 26 16 42zM384 448h-192l320 128v-128h192l-320-128z" />
<glyph unicode="&#x3e;" glyph-name="vnt-powerc" d="M1006-44c-14-12-28-20-46-20s-32 4-44 16l-94 96c-58-38-122-54-192-46s-130 36-180 86l-16 16 424 422 14-14c50-50 78-110 86-180s-8-136-44-194l94-94c12-12 18-26 18-44-2-16-8-32-20-44zM532 528l-102 102-100-100 102-102c12-12 18-26 18-44-2-16-8-32-20-44-14-12-28-20-46-20s-32 4-44 16l-102 102-70-70-14 16c-50 50-80 110-86 180-8 70 6 134 44 192l-94 94c-12 12-18 26-16 44 0 18 6 32 20 44 12 14 26 20 44 20 18 2 32-4 44-16l94-94c58 38 122 54 192 46s130-36 182-86l14-16-70-70 102-102c12-12 18-26 18-44-2-16-8-32-20-44-14-12-28-20-46-20s-32 4-44 16z" />
<glyph unicode="&#x3f;" glyph-name="webhostinghub-glyphs-4" d="M992 704h-118l-298-328v-312h96c8 0 16-4 22-10s10-14 10-22v-64c0-8-4-16-10-22s-14-10-22-10h-384c-8 0-16 4-22 10s-10 14-10 22v64c0 8 4 16 10 22s14 10 22 10h96v304l-262 462v2h-90c-8 0-16 4-22 10s-10 14-10 22v64c0 8 4 16 10 22s14 10 22 10h384c8 0 16-4 22-10s10-14 10-22v-64c0-8-4-16-10-22s-14-10-22-10h-126l212-368 218 240h-112c-8 0-16 4-22 10s-10 14-10 22v64c0 8 4 16 10 22s14 10 22 10h384c8 0 16-4 22-10s10-14 10-22v-64c0-8-4-16-10-22s-14-10-22-10z" />
<glyph unicode="&#x40;" glyph-name="vnt-gmail" d="M960 64h-896c-18 0-32 6-44 18-14 14-20 28-20 46v640c0 18 6 34 18 46s28 18 46 18h896c18 0 34-6 46-18s18-28 18-46v-640c0-18-6-32-18-46-12-12-28-18-46-18zM960 736c0 8-4 16-10 22s-14 10-22 10h-64c-14 0-24 0-32-2-8 0-18-4-30-10s-24-16-36-30l-254-252-252 252c-14 14-26 24-38 30s-22 10-30 10c-8 2-18 2-32 2h-64c-8 0-16-4-22-10s-10-14-10-22v-576c0-8 4-16 10-22s14-10 22-10h64c8 0 16 4 22 10s10 14 10 22v32l212 210 74-74c10-10 20-12 34-6 14-6 26-4 36 6l74 74 210-210v-32c0-8 4-16 10-22s14-10 22-10h64c8 0 16 4 22 10s10 14 10 22zM832 282l-166 166 166 166zM192 614l166-166-166-166z" />
<glyph unicode="&#x41;" glyph-name="vnt-help" d="M1024 448c0-70-14-138-42-202 28-36 42-74 42-118 0-54-18-98-56-136s-82-56-136-56c-44 0-82 14-118 42-64-28-132-42-202-42s-138 14-202 42c-36-28-74-42-118-42-54 0-98 18-136 56s-56 82-56 136c0 44 14 82 42 118-28 64-42 132-42 202s14 138 42 202c-28 36-42 74-42 118 0 52 18 98 56 136s84 56 136 56c44 0 82-14 118-42 64 28 132 42 202 42s138-14 202-42c36 28 74 42 118 42 54 0 98-18 136-56s56-84 56-136c0-44-14-82-42-118 28-64 42-132 42-202zM192 0c18 0 36 4 54 12-70 42-128 98-170 168-8-16-12-34-12-52 0-36 12-66 38-90 24-26 54-38 90-38zM192 896c-36 0-66-12-90-38-26-24-38-54-38-90 0-18 4-36 12-54 42 70 100 128 170 170-18 8-36 12-54 12zM292 576h-208c-14-42-20-84-20-128s6-86 20-128h208c-24 40-36 82-36 128s12 88 36 128zM832 0c36 0 66 12 90 38 26 24 38 54 38 90 0 18-4 36-12 52-42-70-98-126-168-168 16-8 34-12 52-12zM734 320h208c12 42 18 84 18 128s-6 86-18 128h-208c22-40 34-82 34-128s-12-88-34-128zM384 128v-110c42-12 84-18 128-18s86 6 128 18v208c-40-22-82-34-128-34s-88 12-128 34zM320 448c0-54 18-98 56-136s84-56 136-56c54 0 98 18 136 56s56 82 56 136c0 54-18 98-56 136s-82 56-136 56c-52 0-98-18-136-56s-56-82-56-136zM640 876c-42 14-84 20-128 20s-86-6-128-20v-208c40 24 82 36 128 36s88-12 128-36zM960 768c0 36-12 66-38 90-24 26-54 38-90 38-18 0-36-4-52-12 70-42 126-100 168-170 8 18 12 36 12 54z" />
<glyph unicode="&#x42;" glyph-name="vnt-help2" d="M512-64c-92 0-178 22-256 68-80 46-142 108-188 186-46 80-68 166-68 258s22 178 68 256c46 80 108 142 188 188 78 46 164 68 256 68s178-22 258-68c78-46 140-108 186-188 46-78 68-164 68-256s-22-178-68-258c-46-78-108-140-186-186-80-46-166-68-258-68zM384 18c42-12 84-18 128-18s86 6 128 18v208c-40-22-82-34-128-34s-88 12-128 34zM292 576h-208c-14-42-20-84-20-128s6-86 20-128h208c-24 40-36 82-36 128s12 88 36 128zM640 876c-42 14-84 20-128 20s-86-6-128-20v-208c40 24 82 36 128 36s88-12 128-36zM512 640c-54 0-98-18-136-56s-56-82-56-136c0-54 18-98 56-136s82-56 136-56c54 0 98 18 136 56s56 82 56 136c0 54-18 98-56 136s-82 56-136 56zM734 576c22-40 34-82 34-128s-12-88-34-128h208c12 42 18 84 18 128s-6 86-18 128z" />
<glyph unicode="&#x43;" glyph-name="vnt-que" d="M512 64c-44 0-88 6-134 16-22-26-46-50-70-70s-44-34-60-44c-16-8-32-16-46-20-16-6-26-8-30-10-6 0-10 0-12 0 18 38 28 80 30 124 2 46-2 84-14 114-54 42-98 92-128 150-32 60-48 122-48 188 0 60 14 118 40 174 28 56 64 102 110 142s100 72 164 96c62 24 128 36 198 36s136-12 200-36c62-24 116-56 162-96s82-86 110-142c26-56 40-114 40-174s-14-118-40-174c-28-56-64-104-110-144s-100-70-162-94c-64-24-130-36-200-36zM448 224c0-8 4-16 10-22s12-10 22-10h64c8 0 16 4 22 10s10 14 10 22v64c0 10-4 16-10 22s-14 10-22 10h-64c-10 0-16-4-22-10s-10-12-10-22zM512 832c-56 0-108-12-152-38-44-24-76-56-92-96l116-58c0 18 12 34 38 46 24 12 54 18 90 18s66-6 90-18c26-12 38-28 38-46s-12-32-38-46c-24-12-54-18-90-18-18 0-34-6-46-18s-18-28-18-46v-96c0-8 4-16 10-22s12-10 22-10h64c8 0 16 4 22 10s10 14 10 22v38c56 12 102 34 138 68s54 74 54 118c0 54-24 98-74 136s-112 56-182 56z" />
<glyph unicode="&#x44;" glyph-name="vnt-earth2" d="M858 188c20 64 34 128 40 194h126c-8-68-30-132-66-194zM858 706h100c36-62 58-126 66-194h-126c-6 66-20 132-40 194zM750 904c36-18 70-42 102-70h-52c-16 28-32 50-50 70zM578 512v194h158c18-60 28-126 32-194zM578 946c38-20 74-56 104-112h-104zM290 188c-18 62-30 126-34 194h192v-194zM290 706h158v-194h-192c4 68 16 134 34 194zM448 946v-112h-106c30 56 66 92 106 112zM172 834c32 28 66 52 102 70-18-20-34-42-50-70zM0 512c8 68 30 132 66 194h100c-20-62-34-128-38-194zM166 188h-100c-36 62-58 126-66 194h128c4-66 18-130 38-194zM224 60c16-26 32-50 50-70-36 20-70 42-102 70zM448 60v-112c-40 20-76 58-106 112zM578 382h190c-4-68-14-132-32-194h-158zM682 60c-30-54-66-92-104-112v112zM852 60c-30-28-64-50-102-70 18 20 34 44 50 70z" />
<glyph unicode="&#x45;" glyph-name="vnt-user2" d="M1024 482c0-8-8-14-22-20-14-4-34-8-62-10s-50-4-68-4c-18 0-42 0-72 0s-52 0-70 0c-18 0-42 2-70 4s-48 6-62 10c-14 6-22 12-22 20 0 28 16 52 46 74s68 38 114 46v20c-64 28-96 98-96 210 0 42 16 74 46 96s68 32 114 32c48 0 86-10 116-32s44-54 44-96c0-116-32-186-96-212v-18c46-8 84-24 114-46s46-46 46-74zM224 448c-30 0-52 0-70 0s-42 2-70 4c-28 2-48 6-62 10-14 6-22 12-22 20 0 28 16 52 46 74s68 38 114 46v20c-64 28-96 98-96 210 0 42 14 74 44 96s68 32 116 32c46 0 86-10 116-32s44-54 44-96c0-116-32-186-96-212v-18c46-8 84-24 114-46s46-46 46-74c0-8-8-14-22-20-14-4-34-8-62-10s-50-4-68-4c-18 0-42 0-72 0zM192 384c18 0 32-6 46-18 12-12 18-28 18-46v-224c0-8 4-16 10-22s14-10 22-10h448c8 0 16 4 22 10s10 14 10 22v224c0 18 6 34 20 46 12 12 26 18 44 18s34-6 46-18c12-12 18-28 18-46v-256c0-36-12-66-38-90-24-26-54-38-90-38h-512c-36 0-66 12-90 38-26 24-38 54-38 90v256c0 18 6 34 18 46s28 18 46 18z" />
<glyph unicode="&#x46;" glyph-name="vnt-fire" d="M958 36c-26-24-54-48-84-68-32-22-56-32-74-32 24 38 36 86 38 142s-12 94-38 114c-22 14-40 32-54 56s-24 46-28 70c-6 24-10 46-12 68s-4 38-2 52v20c-4-4-10-12-16-20-8-8-22-24-40-50-18-24-34-48-48-72-14-22-26-48-38-78s-18-56-18-78c0-50 8-90 22-124 16-32 40-66 74-100-32 0-64 6-98 18-34 14-64 32-86 56-14 16-30 46-46 90-16 46-24 88-26 124-2 44 6 94 22 150 18 54 42 106 74 156 24 36 52 70 86 104 32 34 64 62 94 84 30 24 58 44 84 62s48 30 64 38l24 14c-2-2-4-6-6-12-4-6-8-18-14-36-6-16-10-34-14-52-2-18-4-40-2-68 0-26 4-52 12-78 6-26 20-54 38-84 18-32 42-62 70-90 32-34 58-70 78-110s30-78 30-114c0-22-6-48-16-76-12-28-28-52-50-76zM512 768v128c0 18 6 32 20 44 12 14 26 20 44 20h256c14 0 28-4 40-14-110-62-216-140-318-238-12 4-22 12-30 24-8 10-12 22-12 36zM330 348c-6 12-10 24-10 36v192c0 18 6 32 20 44 12 14 26 20 44 20h102c-26-28-50-54-70-78-40-50-70-120-86-214zM384 704h-320c-18 0-32 6-44 18-14 12-20 28-20 46v128c0 18 6 32 20 44 12 14 26 20 44 20h320c18 0 34-6 46-20 12-12 18-26 18-44v-128c0-18-6-34-18-46s-28-18-46-18zM64 640h128c18 0 34-6 46-20 12-12 18-26 18-44v-192c0-18-6-34-18-46s-28-18-46-18h-128c-18 0-32 6-44 18-14 12-20 28-20 46v192c0 18 6 32 20 44 12 14 26 20 44 20zM64 256h256c0-16 0-28 0-40 2-38 10-82 26-136s32-88 46-102c8-8 18-18 30-30-12-8-24-12-38-12h-320c-18 0-32 6-44 18-14 12-20 28-20 46v192c0 18 6 32 20 44 12 14 26 20 44 20z" />
<glyph unicode="&#x47;" glyph-name="vnt-host1" d="M896-64h-768c-36 0-66 12-90 38-26 24-38 54-38 90v768c0 36 12 66 38 90 24 26 54 38 90 38h768c36 0 66-12 90-38 26-24 38-54 38-90v-768c0-36-12-66-38-90-24-26-54-38-90-38zM896 768c0 18-6 32-18 44-14 14-28 20-46 20h-640c-18 0-34-6-46-20-12-12-18-26-18-44v-640c0-18 6-34 18-46s28-18 46-18h640c18 0 32 6 46 18 12 12 18 28 18 46zM768 128h-512c-18 0-34 6-46 18-12 14-18 28-18 46v128c0 18 6 32 18 44 12 14 28 20 46 20h512c18 0 32-6 46-20 12-12 18-26 18-44v-128c0-18-6-34-18-46-14-12-28-18-46-18zM320 320c-18 0-34-6-46-20-12-12-18-26-18-44s6-34 18-46c12-12 28-18 46-18s32 6 46 18c12 12 18 28 18 46s-6 32-18 44c-14 14-28 20-46 20zM736 256h-256c-8 0-16-4-22-10s-10-14-10-22c0-8 4-16 10-22s14-10 22-10h256c8 0 16 4 22 10s10 14 10 22c0 8-4 16-10 22s-14 10-22 10zM768 512h-512c-18 0-34 6-46 18s-18 28-18 46v128c0 18 6 32 18 44 12 14 28 20 46 20h512c18 0 32-6 46-20 12-12 18-26 18-44v-128c0-18-6-34-18-46-14-12-28-18-46-18zM320 704c-18 0-34-6-46-20-12-12-18-26-18-44s6-34 18-46c12-12 28-18 46-18s32 6 46 18c12 12 18 28 18 46s-6 32-18 44c-14 14-28 20-46 20zM736 640h-256c-8 0-16-4-22-10s-10-14-10-22c0-8 4-16 10-22s14-10 22-10h256c8 0 16 4 22 10s10 14 10 22c0 8-4 16-10 22s-14 10-22 10z" />
<glyph unicode="&#x48;" glyph-name="vnt-host2" d="M896-64h-768c-36 0-66 12-90 38-26 24-38 54-38 90v704c0 36 12 66 38 90 24 26 54 38 90 38h768c36 0 66-12 90-38 26-24 38-54 38-90v-704c0-36-12-66-38-90-24-26-54-38-90-38zM896 704c0 18-6 32-18 44-14 14-28 20-46 20h-640c-18 0-34-6-46-18s-18-28-18-46v-64c0-18 6-34 18-46s28-18 46-18v64c0 18 6 32 18 44 12 14 28 20 46 20s32-6 46-20c12-12 18-26 18-44v-64h512c18 0 32 6 46 18 12 12 18 28 18 46zM896 448c0 18-6 32-18 44-14 14-28 20-46 20h-640c-18 0-34-6-46-18s-18-28-18-46v-64c0-18 6-34 18-46s28-18 46-18v64c0 18 6 32 18 44 12 14 28 20 46 20s32-6 46-20c12-12 18-26 18-44v-64h512c18 0 32 6 46 18 12 12 18 28 18 46zM896 192c0 18-6 32-18 44-14 14-28 20-46 20h-640c-18 0-34-6-46-18s-18-28-18-46v-64c0-18 6-34 18-46s28-18 46-18v64c0 18 6 32 18 44 12 14 28 20 46 20s32-6 46-20c12-12 18-26 18-44v-64h512c18 0 32 6 46 18 12 12 18 28 18 46zM800 128h-384c-8 0-16 4-22 10s-10 14-10 22c0 8 4 16 10 22s14 10 22 10h384c8 0 16-4 22-10s10-14 10-22c0-8-4-16-10-22s-14-10-22-10zM800 384h-384c-8 0-16 4-22 10s-10 14-10 22c0 8 4 16 10 22s14 10 22 10h384c8 0 16-4 22-10s10-14 10-22c0-8-4-16-10-22s-14-10-22-10zM800 640h-384c-8 0-16 4-22 10s-10 14-10 22c0 8 4 16 10 22s14 10 22 10h384c8 0 16-4 22-10s10-14 10-22c0-8-4-16-10-22s-14-10-22-10z" />
<glyph unicode="&#x49;" glyph-name="vnt-vps" d="M896 576h-320v-128h384c18 0 34-6 46-20 12-12 18-26 18-44s-6-34-18-46c-12-12-28-18-46-18h-896c-18 0-32 6-44 18-14 12-20 28-20 46s6 32 20 44c12 14 26 20 44 20h384v128h-320c-36 0-66 12-90 38-26 24-38 54-38 90v128c0 36 12 66 38 90 24 26 54 38 90 38h768c36 0 66-12 90-38 26-24 38-54 38-90v-128c0-36-12-66-38-90-24-26-54-38-90-38zM192 832c-18 0-34-6-46-20-12-12-18-26-18-44s6-34 18-46c12-12 28-18 46-18s32 6 46 18c12 12 18 28 18 46s-6 32-18 44c-12 14-28 20-46 20zM832 832h-384c-18 0-32-6-44-20-14-12-20-26-20-44s6-34 20-46c12-12 26-18 44-18h384c18 0 34 6 46 18s18 28 18 46c0 18-6 32-18 44-12 14-28 20-46 20zM512 192c70 0 134-6 192-18 60-10 106-26 140-46s52-40 52-64c0-24-18-44-52-64s-80-36-140-48c-58-10-122-16-192-16s-134 6-192 16c-60 12-106 28-140 48s-52 40-52 64c0 24 18 44 52 64s80 36 140 46c58 12 122 18 192 18z" />
<glyph unicode="&#x4a;" glyph-name="vnt-server" d="M768-64h-512c-18 0-32 6-44 18-14 12-20 28-20 46v896c0 18 6 34 20 46 12 12 26 18 44 18h512c18 0 34-6 46-18s18-28 18-46v-896c0-18-6-34-18-46s-28-18-46-18zM512 64c18 0 34 6 46 18s18 28 18 46c0 18-6 32-18 44-12 14-28 20-46 20s-32-6-44-20c-14-12-20-26-20-44s6-34 20-46c12-12 26-18 44-18zM768 864c0 8-4 16-10 22s-14 10-22 10h-448c-8 0-16-4-22-10s-10-14-10-22v-64c0-8 4-16 10-22s14-10 22-10h448c8 0 16 4 22 10s10 14 10 22zM768 672c0 8-4 16-10 22s-14 10-22 10h-448c-8 0-16-4-22-10s-10-14-10-22v-64c0-8 4-16 10-22s14-10 22-10h448c8 0 16 4 22 10s10 14 10 22zM768 480c0 8-4 16-10 22s-14 10-22 10h-448c-8 0-16-4-22-10s-10-14-10-22v-64c0-8 4-16 10-22s14-10 22-10h448c8 0 16 4 22 10s10 14 10 22z" />
<glyph unicode="&#x4b;" glyph-name="vnt-server2" d="M960-64h-320c-18 0-34 6-46 18-12 14-18 28-18 46v896c0 18 6 32 18 44 12 14 28 20 46 20h320c18 0 32-6 46-20 12-12 18-26 18-44v-896c0-18-6-34-18-46s-28-18-46-18zM640 128c0-18 6-34 18-46s28-18 46-18c18 0 32 6 46 18 12 12 18 28 18 46s-6 32-18 44c-14 14-28 20-46 20s-32-6-44-20c-14-12-20-26-20-44zM960 864c0 8-4 16-10 22s-14 10-22 10h-256c-8 0-16-4-22-10s-10-14-10-22v-64c0-8 4-16 10-22s14-10 22-10h256c8 0 16 4 22 10s10 14 10 22zM960 672c0 8-4 16-10 22s-14 10-22 10h-256c-8 0-16-4-22-10s-10-14-10-22v-64c0-8 4-16 10-22s14-10 22-10h256c8 0 16 4 22 10s10 14 10 22zM960 480c0 8-4 16-10 22s-14 10-22 10h-256c-8 0-16-4-22-10s-10-14-10-22v-64c0-8 4-16 10-22s14-10 22-10h256c8 0 16 4 22 10s10 14 10 22zM384-64h-320c-18 0-34 6-46 18-12 14-18 28-18 46v896c0 18 6 32 18 44 12 14 28 20 46 20h320c18 0 34-6 46-20 12-12 18-26 18-44v-896c0-18-6-34-18-46s-28-18-46-18zM64 128c0-18 6-34 18-46s28-18 46-18c18 0 34 6 46 18s18 28 18 46c0 18-6 32-18 44-12 14-28 20-46 20s-32-6-44-20c-14-12-20-26-20-44zM384 864c0 8-4 16-10 22s-14 10-22 10h-256c-8 0-16-4-22-10s-10-14-10-22v-64c0-8 4-16 10-22s14-10 22-10h256c8 0 16 4 22 10s10 14 10 22zM384 672c0 8-4 16-10 22s-14 10-22 10h-256c-8 0-16-4-22-10s-10-14-10-22v-64c0-8 4-16 10-22s14-10 22-10h256c8 0 16 4 22 10s10 14 10 22zM384 480c0 8-4 16-10 22s-14 10-22 10h-256c-8 0-16-4-22-10s-10-14-10-22v-64c0-8 4-16 10-22s14-10 22-10h256c8 0 16 4 22 10s10 14 10 22z" />
<glyph unicode="&#x4c;" glyph-name="vnt-mail" d="M512 382l-448 450h898zM8 98c-6 10-8 20-8 30v640c0 10 2 20 8 28l350-348zM474 330c4-2 8-6 14-8s12-2 18-2h6c18 0 30 2 40 10l70 72 340-338h-898l338 338zM1018 796c4-8 6-18 6-28v-640c0-10-2-20-6-30l-350 350z" />
<glyph unicode="&#x4d;" glyph-name="vnt-setting-1" d="M1024 704c-2-70-28-130-78-180s-108-76-178-76c-20 0-40 2-60 8 6-20 16-38 34-52 16-14 36-20 58-20l96-96 82-86c30-30 46-66 46-110 0-42-16-80-46-110s-68-46-110-46c-44 0-80 16-110 46l-86 82-96 96c0 26-10 50-28 68s-42 28-68 28l-6 6v2l-248-320c-6-6-36-8-86-8-52 0-80 2-86 8l-44 44c-6 8-10 36-10 88 0 50 4 80 10 86l420 324-216 218h-118l-96 192 64 64 192-96v-116l222-224 66 52c0 0 0 0 2 0v0c-22 40-34 84-34 128 0 70 26 128 76 178s110 76 180 78v-38l-82-78c-30-30-46-68-46-110 0-44 16-80 46-112 30-30 68-46 112-46 42 0 80 16 110 46l78 82zM128 128c-18 0-34-6-46-18s-18-28-18-46c0-18 6-32 18-46 12-12 28-18 46-18s34 6 46 18c12 14 18 28 18 46s-6 34-18 46c-12 12-28 18-46 18z" />
<glyph unicode="&#x4e;" glyph-name="vnt-shop" d="M970 832h-76l-122-596c-4-12-12-22-22-32-12-8-22-12-34-12h-548c-12 0-24 4-36 12-10 10-18 20-20 32l-98 378c-8 24-6 44 2 62s22 28 40 28l710 122 18 90c2 12 10 22 20 30 12 10 24 14 36 14h130c18 0 32-6 44-18s20-28 20-46c0-18-8-32-20-46-12-12-28-18-44-18zM298 128c26 0 48-10 68-28 18-18 28-42 28-68s-10-50-28-68c-20-18-42-28-68-28-28 0-50 10-68 28-20 18-28 42-28 68s8 50 28 68c18 18 40 28 68 28zM618 128c26 0 48-10 68-28 18-18 28-42 28-68s-10-50-28-68c-20-18-42-28-68-28-28 0-50 10-68 28-20 18-28 42-28 68s8 50 28 68c18 18 40 28 68 28z" />
<glyph unicode="&#x4f;" glyph-name="vnt-tag" d="M1006 278l-324-324c-12-12-28-18-46-18s-32 6-44 18l-574 574c-12 12-18 38-18 78v288c0 18 6 34 20 46 12 12 26 18 44 18h288c42 0 68-6 80-18l574-572c12-12 18-28 18-46 0-16-6-32-18-44zM256 832c-36 0-66-12-90-38-26-24-38-54-38-90s12-66 38-90c24-26 54-38 90-38s66 12 90 38c26 24 38 54 38 90s-12 66-38 90c-24 26-54 38-90 38z" />
<glyph unicode="&#x50;" glyph-name="vnt-safe" d="M512-64c-56 28-106 58-152 88-46 32-84 62-118 90-34 30-64 64-90 102-26 40-48 74-64 104-18 28-32 66-42 114-12 48-20 86-26 116s-12 74-14 130c-4 58-6 102-6 134s0 80 0 146c0-18 26-32 76-46 50-12 110-18 180-18s132 6 182 18c50 14 74 28 74 46 0-18 26-32 76-46 50-12 110-18 180-18s132 6 182 18c50 14 74 28 74 46 0-66 0-114 0-146s-2-76-6-134c-2-56-6-100-12-130s-16-68-26-116c-12-48-26-86-44-114-16-30-38-64-64-104-26-38-54-72-88-102-34-28-74-58-120-90-46-30-96-60-152-88zM512 832c0-18-18-32-56-46-38-12-84-18-136-18-36 0-72 2-106 8-36 6-64 14-86 24 0-52 0-94 2-126s4-70 10-114c4-44 12-82 22-110s24-62 44-98c18-36 40-66 68-94 26-26 60-54 100-82s86-56 138-80z" />
<glyph unicode="&#x51;" glyph-name="vnt-chart" d="M1024 0c0-18-6-32-18-46-14-12-28-18-46-18h-896c-18 0-34 6-46 18s-18 28-18 46c0 18 6 34 18 46s28 18 46 18v320c0 18 6 34 18 46s28 18 46 18h128c18 0 32-6 46-18 12-12 18-28 18-46v-320h64v832c0 18 6 34 18 46s28 18 46 18h128c18 0 34-6 46-18s18-28 18-46v-832h64v576c0 18 6 34 20 46 12 12 26 18 44 18h128c18 0 34-6 46-18s18-28 18-46v-576c18 0 34-6 46-18s18-28 18-46z" />
<glyph unicode="&#x52;" glyph-name="vnt-safe2" d="M512-64c-50 26-96 50-138 76s-80 52-112 80c-32 28-62 54-86 78-26 24-48 52-66 86s-34 62-46 86c-12 24-22 56-30 98-8 40-16 74-20 98-4 26-8 62-10 112s-4 88-4 116c0 28 0 72 0 130 162 42 334 64 512 64s348-22 512-64c0-58 0-102 0-130s-2-68-4-116c-2-50-6-86-10-112s-10-58-18-100c-8-40-20-72-32-96s-28-52-46-86c-18-34-40-62-66-86-24-24-54-50-86-78s-70-54-112-80c-42-26-88-50-138-76zM128 786c0-60 0-104 2-132 0-28 2-66 8-112 4-46 10-82 20-108 10-24 24-54 42-90 18-34 40-64 68-88s62-52 102-80c40-28 88-54 142-80 54 26 102 52 142 80s74 56 102 80c28 24 50 54 68 88 18 36 32 66 42 90 10 26 16 62 22 108 4 46 6 84 8 112 0 28 0 72 0 132-122 30-250 46-384 46s-262-16-384-46z" />
<glyph unicode="&#x53;" glyph-name="materialicons-regular" d="M512 960c268 0 488-206 510-468h-64c-14 160-114 294-254 360l-58-56-162 162zM706 456c0 70-28 114-94 114h-40v-246h38c52 0 80 28 92 68 4 14 4 30 4 48zM612 618c76 0 122-38 144-94 8-20 10-44 10-68v-16c0-52-16-92-42-118s-62-44-114-44h-98v340zM414 452c30-12 56-36 56-78 0-16-4-28-10-40s-12-24-22-32c-18-16-48-24-80-24-62 0-108 32-108 94h54c0-30 24-50 54-50 36 0 56 18 56 54 0 38-24 54-62 54h-32v44h32c34 0 58 16 58 50s-18 50-52 50c-28 0-50-18-50-46h-56c0 30 16 50 30 64 20 16 42 26 76 26 52 0 80-20 98-54 6-12 8-24 8-40 0-36-24-60-50-72zM320 44l58 56 162-162-28-2c-268 0-488 208-510 470h64c16-160 114-296 254-362z" />
<glyph unicode="&#x54;" glyph-name="vnt-home" d="M1004 404c-12-12-28-20-46-20s-34 8-46 20l-16 14v-418c0-18-6-32-18-46-12-12-28-18-46-18h-640c-18 0-34 6-46 18-12 14-18 28-18 46v418l-14-14c-14-12-30-20-48-20s-34 8-46 20c-14 14-20 30-20 48s6 34 20 46l444 444c10 10 22 16 38 18 14 2 28-2 42-10 4 0 10-2 18-8l444-444c12-12 18-28 18-46s-6-34-20-48zM768 546l-256 256-256-256v-482h512z" />
<glyph unicode="&#x55;" glyph-name="vnt-host2-1" d="M832-64h-640c-36 0-66 12-90 38-26 24-38 54-38 90v768c0 36 12 66 38 90 24 26 54 38 90 38h640c36 0 66-12 90-38 26-24 38-54 38-90v-768c0-36-12-66-38-90-24-26-54-38-90-38zM832 224c0 22-6 40-18 56-14 18-30 28-50 34 46 58 68 124 68 198 0 58-14 112-42 160-30 50-68 88-118 116-48 30-102 44-160 44s-112-14-160-44c-50-28-88-66-116-116-30-48-44-102-44-160 0-74 22-140 68-198-20-6-36-16-48-34-14-16-20-34-20-56v-64c0-26 10-50 28-68s42-28 68-28h448c26 0 50 10 68 28s28 42 28 68zM512 384c-36 0-66 12-90 38-26 24-38 54-38 90s12 66 38 90c24 26 54 38 90 38s66-12 90-38c26-24 38-54 38-90s-12-66-38-90c-24-26-54-38-90-38z" />
<glyph unicode="&#x56;" glyph-name="vnt-updown" d="M896 192h-320v-128h128c18 0 32-6 46-20 12-12 18-26 18-44s-6-34-18-46c-14-12-28-18-46-18h-384c-18 0-34 6-46 18s-18 28-18 46c0 18 6 32 20 44 12 14 26 20 44 20h128v128h-320c-36 0-66 12-90 38-26 24-38 54-38 90v384c0 18 6 32 20 44 12 14 26 20 44 20h480l46 84c4 12 14 24 28 32s28 12 44 12h240c16 0 32-4 46-12s22-20 28-32l48-84v-448c0-36-12-66-38-90-24-26-54-38-90-38zM442 486l-134 144c-6 6-12 10-20 10s-14-4-18-10l-136-144c-6-6-6-14-4-24s4-14 10-14h52v-96c0-8 4-16 10-22s14-10 22-10h128c8 0 16 4 22 10s10 14 10 22v96h52c6 0 10 4 12 14s0 18-6 24zM884 512h-52v96c0 8-4 16-10 22s-14 10-22 10h-128c-8 0-16-4-22-10s-10-14-10-22v-96h-52c-6 0-8-4-10-14s-2-18 4-24l136-146c4-6 10-8 18-8s14 2 20 8l134 146c6 6 8 14 6 24s-6 14-12 14zM46 916c4 12 14 24 28 32s28 12 44 12h240c16 0 32-4 46-12s22-20 28-32l48-84h-480z" />
<glyph unicode="&#x57;" glyph-name="vnt-folders" d="M896 192v128c0 10-4 16-10 22s-14 10-22 10h-94c-6 12-12 22-20 32l46 80c4 8 6 16 4 24-2 10-8 16-16 20l-164 96c-8 4-16 6-24 4s-16-8-20-16l-46-82c-2 0-4 2-8 2s-8 0-10 0c-2 0-6 0-10 0s-6-2-8-2l-46 82c-4 8-12 14-20 16s-16 0-24-4l-164-96c-8-4-12-10-14-20-2-8-2-16 2-24l46-80c-8-10-14-20-18-32h-96c-8 0-16-4-22-10s-10-12-10-22v-128c-36 0-66 12-90 38-26 24-38 54-38 90v384c0 18 6 34 18 46s28 18 46 18h480l46 84c4 12 14 24 28 32s28 12 44 12h240c16 0 32-4 46-12s22-20 28-32l48-84v-448c0-36-12-66-38-90-24-26-54-38-90-38zM46 916c4 12 14 24 28 32s28 12 44 12h240c16 0 32-4 46-12s22-20 28-32l48-84h-480zM224 288h108c8 24 20 44 38 64l-46 82c-4 8-6 16-4 24s8 16 16 20l52 30c6 4 14 6 22 4s14-8 18-16l48-84c14 2 26 4 36 4 12 0 24-2 36-4l48 84c4 8 10 14 18 16s16 0 24-4l52-30c6-4 12-12 14-20s2-16-2-24l-48-82c18-20 30-40 38-64h108c8 0 16-4 22-10s10-12 10-22v-64c0-8-4-16-10-22s-14-10-22-10h-108c-8-22-20-44-38-64l48-82c4-8 4-16 2-24s-8-14-14-20l-52-30c-8-4-16-6-24-4s-14 8-18 16l-48 84c-12-2-24-4-36-4-10 0-22 2-36 4l-48-84c-4-8-10-14-18-16s-16 0-22 4l-52 30c-8 6-14 12-16 20s0 16 4 24l46 82c-18 20-30 42-38 64h-108c-8 0-16 4-22 10s-10 14-10 22v64c0 10 4 16 10 22s14 10 22 10zM512 160c18 0 34 6 46 18 12 14 18 28 18 46s-6 34-18 46c-12 12-28 18-46 18s-32-6-44-18c-14-12-20-28-20-46s6-32 20-46c12-12 26-18 44-18z" />
<glyph unicode="&#x58;" glyph-name="vnt-servers" d="M896 320c36 0 66-12 90-38 26-24 38-54 38-90v-128c0-36-12-66-38-90-24-26-54-38-90-38h-768c-36 0-66 12-90 38-26 24-38 54-38 90v128c0 36 12 66 38 90 24 26 54 38 90 38h320v128h-320c-36 0-66 12-90 38-26 24-38 54-38 90v128c0 36 12 66 38 90 24 26 54 38 90 38h320v64c0 18 6 34 18 46s28 18 46 18c18 0 32-6 46-18 12-12 18-28 18-46v-64h320c36 0 66-12 90-38 26-24 38-54 38-90v-128c0-36-12-66-38-90-24-26-54-38-90-38h-320v-128zM192 192c-18 0-34-6-46-20-12-12-18-26-18-44s6-34 18-46c12-12 28-18 46-18s32 6 46 18c12 12 18 28 18 46s-6 32-18 44c-14 14-28 20-46 20zM192 704c-18 0-34-6-46-20-12-12-18-26-18-44s6-34 18-46c12-12 28-18 46-18s32 6 46 18c12 12 18 28 18 46s-6 32-18 44c-14 14-28 20-46 20zM832 576c18 0 32 6 46 18 12 12 18 28 18 46s-6 32-18 44c-14 14-28 20-46 20h-384c-18 0-34-6-46-20-12-12-18-26-18-44s6-34 18-46c12-12 28-18 46-18zM448 192c-18 0-34-6-46-20-12-12-18-26-18-44s6-34 18-46c12-12 28-18 46-18h384c18 0 32 6 46 18 12 12 18 28 18 46s-6 32-18 44c-14 14-28 20-46 20z" />
<glyph unicode="&#x59;" glyph-name="vnt-servers2" d="M896-64h-768c-36 0-66 12-90 38-26 24-38 54-38 90s12 66 38 90c24 26 54 38 90 38h768c36 0 66-12 90-38 26-24 38-54 38-90s-12-66-38-90c-24-26-54-38-90-38zM192 128c-18 0-34-6-46-20-12-12-18-26-18-44s6-34 18-46c12-12 28-18 46-18s32 6 46 18c12 12 18 28 18 46s-6 32-18 44c-14 14-28 20-46 20zM832 128h-384c-18 0-34-6-46-20-12-12-18-26-18-44s6-34 18-46c12-12 28-18 46-18h384c18 0 32 6 46 18 12 12 18 28 18 46s-6 32-18 44c-14 14-28 20-46 20zM800 512h-40c-6-24-16-46-28-68l18-20c12-12 18-26 18-42 0-18-6-32-18-44s-26-18-44-18c-16 0-30 6-42 18l-20 20c-22-14-44-24-68-30v-40c0-18-6-34-18-46s-28-18-46-18c-18 0-32 6-44 18-14 12-20 28-20 46v40c-24 6-46 16-68 30l-20-20c-12-12-26-18-44-18-16 0-30 6-42 18s-18 26-18 44c0 16 6 30 18 42l20 20c-14 22-24 44-30 68h-40c-18 0-34 6-46 18s-18 28-18 46c0 18 6 32 18 44 12 14 28 20 46 20h40c6 24 16 46 30 68l-20 20c-12 12-18 26-18 44 0 16 6 30 18 42s26 18 42 18c18 0 32-6 44-18l20-20c22 14 44 22 68 28v42c0 18 6 32 18 44 12 14 28 20 46 20s32-6 46-20c12-12 18-26 18-44v-42c24-6 46-14 68-28l20 20c12 12 26 18 42 18 18 0 32-6 44-18s18-26 18-42c0-18-6-32-18-44l-20-20c14-22 24-44 30-68h40c18 0 34-6 46-20 12-12 18-26 18-44s-6-34-18-46c-14-12-28-18-46-18zM512 704c-36 0-66-12-90-38-26-24-38-54-38-90s12-66 38-90c24-26 54-38 90-38s66 12 90 38c26 24 38 54 38 90s-12 66-38 90c-24 26-54 38-90 38z" />
<glyph unicode="&#x5a;" glyph-name="vnt-dols" d="M896-64h-768c-36 0-66 12-90 38-26 24-38 54-38 90s12 66 38 90c24 26 54 38 90 38h320v38c-56 10-102 34-138 68s-54 74-54 118c0 18 6 32 18 44 12 14 28 20 46 20s32-6 46-20c12-12 18-26 18-44s6-34 18-48c12-14 26-26 46-36v186c-56 10-102 34-138 68s-54 74-54 118c0 44 18 84 54 118s82 58 138 68v6c0 18 6 32 18 44 12 14 28 20 46 20s32-6 46-20c12-12 18-26 18-44v-6c56-10 102-34 138-68s54-74 54-118c0-18-6-34-18-46-14-12-28-18-46-18s-34 6-46 18c-12 14-18 28-18 46s-6 34-18 48c-12 14-26 26-46 34v-184c56-10 102-34 138-68s54-74 54-118c0-44-18-84-54-118s-82-58-138-68v-38h320c36 0 66-12 90-38 26-24 38-54 38-90s-12-66-38-90c-24-26-54-38-90-38zM448 786c-20-8-34-20-46-34s-18-30-18-48c0-18 6-34 18-48s26-26 46-36zM192 128c-18 0-34-6-46-20-12-12-18-26-18-44s6-34 18-46c12-12 28-18 46-18s32 6 46 18c12 12 18 28 18 46s-6 32-18 44c-14 14-28 20-46 20zM640 416c0 18-6 34-18 48s-26 26-46 34v-166c20 10 34 22 46 36s18 30 18 48zM832 128h-384c-18 0-34-6-46-20-12-12-18-26-18-44s6-34 18-46c12-12 28-18 46-18h384c18 0 32 6 46 18 12 12 18 28 18 46s-6 32-18 44c-14 14-28 20-46 20z" />
<glyph unicode="&#x5b;" glyph-name="vnt-conta" d="M960-64h-768c-18 0-32 6-44 18-14 14-20 28-20 46h64c36 0 66 12 90 38 26 24 38 54 38 90s-12 66-38 90c-24 26-54 38-90 38h-64v64h64c36 0 66 12 90 38 26 24 38 54 38 90s-12 66-38 90c-24 26-54 38-90 38h-64v64h64c36 0 66 12 90 38 26 24 38 54 38 90s-12 66-38 90c-24 26-54 38-90 38h-64c0 18 6 32 20 44 12 14 26 20 44 20h768c18 0 32-6 46-20 12-12 18-26 18-44v-896c0-18-6-32-18-46-14-12-28-18-46-18zM672 346v18c64 26 96 96 96 212 0 42-14 74-44 96s-68 32-116 32c-46 0-84-10-114-32s-46-54-46-96c0-112 32-182 96-212v-18c-46-8-84-24-114-46s-46-46-46-74c0-8 8-14 22-20 14-4 34-8 62-10s52-4 70-4c18 0 40 0 70 0s54 0 72 0c18 0 40 2 68 4s48 6 62 10c14 6 22 12 22 20 0 28-16 52-46 74s-68 38-114 46zM256 768c0-18-6-34-18-46s-28-18-46-18h-128c-18 0-32 6-44 18-14 12-20 28-20 46s6 32 18 44c12 14 28 20 46 20h128c18 0 34-6 46-20 12-12 18-26 18-44zM64 512h128c18 0 34-6 46-20 12-12 18-26 18-44s-6-34-18-46c-12-12-28-18-46-18h-128c-18 0-32 6-44 18-14 12-20 28-20 46s6 34 20 46c12 12 26 18 44 18zM64 192h128c18 0 34-6 46-20 12-12 18-26 18-44s-6-32-18-46c-12-12-28-18-46-18h-128c-18 0-32 6-44 18-14 14-20 28-20 46s6 34 20 46c12 12 26 18 44 18z" />
<glyph unicode="&#x5c;" glyph-name="android-add-circle" d="M512 864c-230 0-416-186-416-416s186-416 416-416c230 0 416 186 416 416s-186 416-416 416zM726 406h-172v-172h-84v172h-172v84h172v172h84v-172h172z" />
<glyph unicode="&#x5d;" glyph-name="vnt-telep" d="M896 0v-32c0-8-4-16-10-22s-14-10-22-10h-64c-8 0-16 4-22 10s-10 14-10 22v32h-512v-32c0-8-4-16-10-22s-14-10-22-10h-64c-8 0-16 4-22 10s-10 14-10 22v32c-36 0-66 12-90 38-26 24-38 54-38 90v64c0 46 12 94 36 144s58 92 98 126c40 34 80 50 122 50 18 0 32 6 46 18 12 12 18 28 18 46v64c0 18 6 32 18 44 12 14 28 20 46 20s34-6 46-20c12-12 18-26 18-44h128c0 18 6 32 18 44 12 14 28 20 46 20s34-6 46-20c12-12 18-26 18-44v-64c0-18 6-34 18-46s28-18 46-18c42 0 82-16 122-50s74-76 98-126c24-50 36-98 36-144v-64c0-36-12-66-38-90-24-26-54-38-90-38zM512 448c-54 0-98-18-136-56s-56-84-56-136c0-54 18-98 56-136s82-56 136-56c54 0 98 18 136 56s56 82 56 136c0 54-18 98-56 136s-82 56-136 56zM512 128c-36 0-66 12-90 38-26 24-38 54-38 90s12 66 38 90c24 26 54 38 90 38s66-12 90-38c26-24 38-54 38-90s-12-66-38-90c-24-26-54-38-90-38zM896 576h-32c0 0-10 0-28 0-20 2-30 2-28 4 0 2-6 4-20 6s-20 4-16 8c4 4 4 8-4 14v102c-16 16-50 28-100 40s-102 18-156 18c-54 0-106-6-156-18s-84-24-100-40v-102c0-6-2-10-4-14-4-4-8-6-16-8-6-2-14-4-20-6s-14-2-26-4c-12 0-22 0-30 0h-66c0 0-10 0-30 0-20 2-28 2-26 4 0 2-6 4-20 6s-18 4-14 8c4 4 4 8-4 14v86c0 42 24 78 70 110 46 30 108 54 184 68 76 16 162 24 258 24s182-8 258-24c76-14 138-38 184-68 46-32 70-68 70-110v-86c0-6-2-10-4-14s-8-6-14-8c-6-2-12-4-18-6s-16-2-28-4c-12 0-22 0-28 0z" />
<glyph unicode="&#x5e;" glyph-name="webhostinghub-glyphs-2" d="M1024 320c2-12 2-22 2-32s0-20-2-32h-64c-2-16-4-32-8-48l58-26c-6-18-14-38-24-58l-60 24c-8-14-16-26-26-40l44-46c-14-16-28-30-44-44l-46 44c-14-10-26-18-40-26l24-60c-20-10-40-18-58-24l-26 58c-16-4-32-6-48-8v-64c-12-2-22-2-32-2s-20 0-32 2v64c-16 2-32 4-48 8l-24-58c-20 6-40 14-60 24l26 60c-14 8-28 16-40 26l-46-44c-18 14-32 28-46 44l46 46c-10 14-20 26-28 40l-58-24c-12 20-20 40-26 58l60 26c-4 16-8 32-10 48h-64c-2 12-2 22-2 32s0 20 2 32h64c2 16 6 32 10 48l-60 24c6 20 14 40 26 60l58-26c8 14 18 28 28 42l-46 44c14 18 28 32 46 46l46-46c12 12 26 20 40 28l-26 60c20 10 40 18 60 24l24-60c16 6 32 8 48 10v64c12 2 22 2 32 2s20 0 32-2v-64c16-2 32-4 48-10l26 60c18-6 38-14 58-24l-24-60c14-8 26-18 40-28l46 46c16-14 30-28 44-46l-44-44c10-14 18-28 26-42l60 26c10-20 18-40 24-60l-58-24c4-16 6-32 8-48zM674 448c-44 0-82-16-112-48-32-30-48-68-48-112s16-82 48-114c30-30 68-46 112-46s82 16 114 46c30 32 46 70 46 114s-16 82-46 112c-32 32-70 48-114 48zM450 662l-12-32c-2-4-6-6-10-8s-8-2-12 0l-58 22c-12-16-24-28-40-40l24-56c2-4 2-10 0-14s-6-6-10-8l-30-14c-4-2-10-2-14 0s-6 6-8 10l-24 56c-12-2-22-2-30-2s-18 0-28 2l-24-56c-2-4-4-8-8-10s-10-2-14 0l-30 14c-4 2-8 4-10 8s-2 10 0 14l24 56c-16 12-30 24-40 40l-58-24c-4 0-8 0-12 2s-8 4-10 8l-12 30c-2 6-2 10 0 14s4 8 10 8l56 24c-2 12-4 22-4 30s2 18 4 28l-58 24c-4 2-6 4-8 8s-2 10 0 14l12 30c2 4 6 8 10 10s8 2 12 0l58-24c10 16 24 30 40 40l-24 58c-2 4-2 8 0 12s4 8 10 10l30 12c4 4 8 4 12 0 4-2 8-4 10-8l24-58c10 2 20 4 28 4s18-2 30-4l22 58c2 4 6 8 10 10s8 2 12-2l32-12c4-2 6-4 8-8s2-10 0-14l-22-56c16-12 28-26 40-42l56 24c4 2 10 2 14 0s6-4 8-8l14-32c2-4 2-8 0-12s-6-8-10-10l-56-24c2-10 2-20 2-28s0-18-2-30l56-22c4-2 8-6 10-10s2-8 0-12zM226 832c-26 0-48-10-68-28-18-18-28-42-28-68s10-50 28-68c20-18 42-28 68-28s50 10 68 28c18 18 28 42 28 68s-10 50-28 68c-18 18-42 28-68 28z" />
<glyph unicode="&#x5f;" glyph-name="alert" d="M640 0h-256v192h256zM608 320h-192l-32 576h256z" />
<glyph unicode="&#x60;" glyph-name="lock-locker-streamline" d="M490 284v-114c0-12 10-20 22-20s22 8 22 20v114c12 6 20 20 20 36 0 24-18 42-42 42s-42-18-42-42c0-16 8-30 20-36zM768 576v128c0 142-114 256-256 256s-256-114-256-256v-128h-128v-640h768v640zM298 704c0 118 96 214 214 214s214-96 214-214v-128h-428zM854-22h-684v556h684z" />
<glyph unicode="&#x61;" glyph-name="ear" d="M960 200c0-52-4-84-10-98l-30-58c-6-10-22-24-50-44s-58-36-88-50c-30-14-50-18-58-12l-52 34c-16 8-26 22-30 40s-2 34 8 50l150 288c8 16 22 26 38 30 16 6 30 4 46-6l52-34c2-2 6-6 8-12 10 40 16 80 16 118 0 58-10 114-32 166-22 54-50 100-88 140l-72-18c-66 64-152 96-256 96s-190-32-256-96l-70 18c-38-40-68-86-90-140-22-52-32-108-32-166 0-38 6-78 16-118 2 6 6 10 10 12l52 34c14 10 30 12 46 6 16-4 28-14 36-30l152-288c8-16 10-32 6-50s-14-32-28-40l-52-34c-10-6-30-2-60 12s-58 30-86 50c-28 20-46 34-50 44l-30 58c-8 14-12 46-12 98-42 76-64 158-64 246 0 70 14 136 40 200 28 64 64 118 110 164s100 82 164 108c62 28 128 40 198 40s136-12 200-40c62-26 116-62 162-108s82-100 110-164c26-64 40-130 40-200 0-88-22-170-64-246z" />
<glyph unicode="&#x62;" glyph-name="quote-1" d="M512-64v194c-70 6-136 26-194 64s-104 88-138 150c-34 62-52 128-52 200 0 76 18 144 56 208 36 64 88 116 152 152 64 38 132 56 208 56s146-18 210-56c64-36 114-88 150-152 38-64 56-132 56-208 0-44-6-88-16-130s-24-82-40-116c-18-34-38-66-60-96-22-32-46-60-70-84-26-24-50-46-74-66-26-20-50-38-72-52s-42-26-60-36c-16-10-30-16-40-22zM512 666c0 10-4 20-10 26-8 8-16 12-26 12h-118c-10 0-20-4-26-12-8-6-12-16-12-26v-122c0-22 10-32 32-32h96c0-42-22-64-64-64v-64c34 0 64 12 90 34s38 52 38 88zM768 666c0 10-4 20-10 26-8 8-16 12-26 12h-118c-10 0-20-4-26-12-8-6-12-16-12-26v-122c0-22 10-32 32-32h96c0-42-22-64-64-64v-64c34 0 64 12 90 34s38 52 38 88z" />
<glyph unicode="&#x63;" glyph-name="webhostinghub-glyphs-13" d="M512-64c-62 0-120 12-176 34-56 24-102 54-142 90-40 38-76 80-106 124-30 46-52 92-66 136-14 46-22 88-22 128 0 46 22 94 68 142 2 48 14 122 36 222 24 98 42 148 56 148 12 0 46-22 98-68s98-90 140-134c38 6 76 10 114 10s76-4 116-10c40 44 88 88 140 134s84 68 96 68c14 0 32-50 56-148 22-100 36-174 38-222 44-48 66-96 66-142 0-40-8-82-22-128-14-44-36-90-66-136-30-44-64-86-104-124-40-36-88-66-144-90-56-22-114-34-176-34zM320 576c-36 0-66-12-90-38-26-24-38-54-38-90s12-66 38-90c24-26 54-38 90-38s66 12 90 38c26 24 38 54 38 90s-12 66-38 90c-24 26-54 38-90 38zM704 576c-36 0-66-12-90-38-26-24-38-54-38-90s12-66 38-90c24-26 54-38 90-38s66 12 90 38c26 24 38 54 38 90s-12 66-38 90c-24 26-54 38-90 38zM768 448c0-36-6-66-18-90-12-26-28-38-46-38s-32 12-44 38c-14 24-20 54-20 90s6 66 20 90c12 26 26 38 44 38s34-12 46-38c12-24 18-54 18-90zM384 448c0-36-6-66-18-90-14-26-28-38-46-38s-34 12-46 38c-12 24-18 54-18 90s6 66 18 90c12 26 28 38 46 38s32-12 46-38c12-24 18-54 18-90z" />
<glyph unicode="&#x64;" glyph-name="hdd" d="M896-64h-768c-36 0-66 12-90 38-26 24-38 54-38 90v160c0 22 10 92 28 210 20 118 42 236 68 352s48 174 64 174h704c16 0 38-58 64-174s48-234 68-352c18-118 28-188 28-210v-160c0-36-12-66-38-90-24-26-54-38-90-38zM960 192c0 18-6 32-18 44-14 14-28 20-46 20h-768c-18 0-34-6-46-18s-18-28-18-46v-128c0-18 6-34 20-46 12-12 26-18 44-18h768c18 0 34 6 46 18s18 28 18 46zM192 64c-18 0-34 6-46 18-12 14-18 28-18 46s6 34 18 46c12 12 28 18 46 18s34-6 46-18c12-12 18-28 18-46s-6-32-18-46c-12-12-28-18-46-18z" />
<glyph unicode="&#x65;" glyph-name="pendrive" d="M988 100l-128-128c-22-22-52-34-94-36-42 0-80 6-118 20s-66 32-84 50l-390 390c-10 10-14 20-14 32 0 14 4 24 14 34l324 324c10 10 20 14 34 14 12 0 22-4 32-14l390-390c18-18 36-46 50-84s20-76 20-118c-2-42-14-72-36-94zM0 652l308 308 154-154-308-308zM292 790c4-4 10-6 16-6s10 2 14 6l32 32c4 4 6 8 6 14s-2 12-6 16l-32 30c-4 6-8 8-14 8s-12-2-16-8l-30-30c-4-4-6-10-6-16s2-10 6-14zM108 606c4-4 10-6 16-6s10 2 14 6l32 32c4 4 6 8 6 14s-2 12-6 16l-32 30c-4 4-8 6-14 6s-12-2-16-6l-30-30c-6-4-8-10-8-16s2-10 8-14z" />
<glyph unicode="&#x66;" glyph-name="mysql" d="M256 736c0 8 4 16 10 22s14 10 22 10c8 0 16-4 22-10s10-14 10-22c0-8-4-16-10-22s-14-10-22-10c-8 0-16 4-22 10s-10 14-10 22zM1024-64c-4 2-8 4-14 6s-18 6-36 14c-18 8-36 18-52 26-16 10-36 22-56 36-20 16-38 32-52 48-14 10-34 28-60 56 14 10 36 18 64 24 30 6 56 10 78 12l32 2c0 10-10 22-28 34-20 12-42 22-66 32-26 10-54 22-84 40s-52 36-68 54c-14 16-26 32-36 50s-22 40-36 68c-14 28-22 44-24 48-14 22-34 50-58 84-26 36-42 60-48 70-20 32-56 72-108 120s-90 72-116 72c-16 0-32-4-46-10-68 50-106 74-114 74s-16-4-22-10c-6-6-10-14-10-22 0-6 10-24 32-56 20-32 42-64 66-96 0-12 2-22 4-34s4-22 6-30c2-8 4-16 8-28 4-10 8-18 10-24 2-4 6-12 12-24s10-18 12-20c2-2 6-10 14-22 6-12 10-18 12-20-6 2-12 2-16 2-10 0-16-14-22-44s-10-68-10-116c0-10 8-32 26-62 20-36 34-42 38-18 0 4 0 10 0 16 0 54 16 86 50 94 40-78 74-142 102-192 28-48 54-90 82-124-56 42-114 112-176 210-6-22-16-42-26-58-10-18-20-26-32-26-20 0-40 12-60 34-22 24-38 50-50 80s-18 56-18 78c0 20 2 46 8 74 6 30 12 54 22 74-16 24-30 46-38 68-10 22-16 52-20 90-4 6-8 14-14 26-58 104-86 164-86 180 0 18 6 32 20 44 12 14 26 20 44 20 14 0 40-8 78-22s68-30 90-44c8 2 16 2 24 2 32 0 76-24 132-70s98-86 124-122c0 0 8-12 24-32 14-20 22-32 26-38s12-18 26-36c12-18 20-30 26-40s12-22 22-36c8-14 16-28 22-40s10-24 14-34c12-30 32-56 62-82 28-26 58-46 90-64s64-34 94-52c30-16 56-36 76-56s30-42 30-66c-10 0-22-2-36-4-16 0-38-4-70-10s-54-14-68-24c12-16 34-36 64-60 30-22 56-42 78-60 22-16 32-28 32-34z" />
<glyph unicode="&#x67;" glyph-name="setting" d="M934 588c-16-22-42-44-82-64s-82-36-122-48c-42-14-84-30-126-50-44-20-76-40-94-62-26-28-62-70-104-126s-82-110-122-166c-40-56-62-88-68-96-18-24-46-36-80-40-34-2-64 6-90 26-26 22-40 50-44 88-6 36 6 70 30 98 12 14 44 42 96 88 52 44 104 92 156 140 52 50 88 90 108 120 20 32 36 64 48 98s24 66 32 100c8 34 18 60 26 78 2 10 20 32 56 62 34 32 68 60 100 86l50 40h64l-64-192c0-2 0-4 0-8 0-2 0-6 2-14 0-8 2-14 6-20s10-10 20-16c10-4 22-6 36-6s26 2 36 4c10 4 16 6 20 8l4 4 68 176h32c20-66 32-130 32-192 0-50-8-90-26-116zM128 128c-18 0-32-6-44-18-14-12-20-28-20-46s6-34 20-46c12-12 26-18 44-18s34 6 46 18c12 12 18 28 18 46s-6 34-18 46c-12 12-28 18-46 18z" />
<glyph unicode="&#x68;" glyph-name="banknote" d="M1006 622l-320 320c-16 16-40 22-62 16-10-2-22-8-30-16-6-8-12-18-16-28-14-46-38-86-76-124-50-50-114-86-182-126-72-42-148-86-208-148-52-52-88-110-110-178-6-22 0-46 16-64l320-320c16-16 40-22 62-16 10 2 22 8 30 16 6 8 12 16 16 28 14 46 38 86 76 124 50 50 114 86 182 126 72 42 148 86 208 148 52 52 88 110 110 178 6 22 0 46-16 64zM384 0c-106 106-214 214-320 320 90 294 486 282 576 576 106-106 214-214 320-320-90-294-486-282-576-576zM626 484c-10 8-20 14-32 16-10 4-20 4-32 4-10 0-20-4-32-8-10-4-20-8-32-14-16 20-34 40-52 58 8 8 16 10 24 12 6 0 14-2 20-4 6 0 14-2 18-4 6 0 12 0 16 4s8 10 8 16c0 6-2 12-8 18-6 8-14 12-24 14s-20 2-30 0c-10-2-20-6-30-12-8-6-16-10-20-16-4 2-6 4-8 6s-4 4-8 4c-4 0-6-2-8-6-2-2-4-4-4-8s2-6 4-8c2-2 4-4 6-6-8-10-14-20-20-32-4-12-8-22-10-34 0-12 0-22 4-30 4-10 10-18 20-26 14-12 32-18 52-16 22 0 44 6 66 20 20-22 38-44 58-64-8-8-16-12-22-12-6-2-12-2-16 0-6 2-10 4-14 6-4 4-8 6-12 8s-10 4-14 4c-4 0-8-2-14-6-4-6-8-10-8-16s4-12 8-18c6-8 14-12 22-16s18-6 28-8c12 0 22 2 34 6s24 12 36 24c4-6 10-12 16-16 2-2 6-4 8-4 4 2 8 2 10 6 2 2 2 6 2 8 0 4-2 6-4 8-6 6-10 10-16 14 10 12 16 24 22 38 6 12 10 24 10 34 2 12 0 22-2 30-4 10-10 18-20 26zM448 462c-10 0-18 2-24 8-4 4-6 8-8 12 0 4 0 8 0 12 0 6 2 10 4 16 2 4 6 10 10 14 16-16 32-34 50-52-14-6-24-10-32-10zM598 398c-2-6-6-10-10-14-18 18-36 38-54 58 4 2 10 4 14 6 6 2 12 4 16 4 6 2 10 2 16 0s10-4 14-8c6-6 8-10 10-14 0-6 0-12 0-16-2-6-4-12-6-16zM470 250v0c-20-16-38-32-56-50-18-16-34-36-48-54l-22-30c-4-6-2-14 2-20 8-6 18-6 24 0 0 2 2 2 2 4l20 28c14 16 28 34 44 50 18 18 34 32 54 48v0c2 0 2 0 2 0 6 6 6 16 0 24-6 6-14 6-22 0zM588 714c-16-18-34-32-54-48 0 0-2 0-4-2-6-6-6-16 0-22s16-6 24-2v0c20 16 38 32 56 50s34 36 48 54l22 30c4 8 4 16-2 22-6 8-16 8-22 0-2 0-2-2-4-4l-20-28c-14-18-28-34-44-50z" />
<glyph unicode="&#x69;" glyph-name="webhostinghub-glyphs-25" d="M636 212l-124-276-122 276c-78 26-140 72-188 138-50 68-74 142-74 226 0 70 18 134 52 192 34 60 80 106 140 140 58 34 122 52 192 52s134-18 192-52c60-34 106-80 140-140 34-58 52-122 52-192 0-84-24-158-72-226-50-66-112-112-188-138zM512 832c-70 0-130-26-180-76s-76-110-76-180c0-70 26-132 76-182s110-74 180-74c70 0 132 24 182 74s74 112 74 182c0 70-24 130-74 180s-112 76-182 76z" />
<glyph unicode="&#x6a;" glyph-name="cal" d="M832-64h-704c-36 0-66 12-90 38-26 24-38 54-38 90v640c0 36 12 66 38 90 24 26 54 38 90 38v64c0 18 6 32 18 44 12 14 28 20 46 20s32-6 46-20c12-12 18-26 18-44v-64h64v64c0 18 6 32 18 44 12 14 28 20 46 20s32-6 46-20c12-12 18-26 18-44v-64h64v64c0 18 6 32 18 44 12 14 28 20 46 20s32-6 46-20c12-12 18-26 18-44v-64h64v64c0 18 6 32 18 44 12 14 28 20 46 20s32-6 46-20c12-12 18-26 18-44v-64c36 0 66-12 90-38 26-24 38-54 38-90v-640c0-36-12-66-38-90-24-26-54-38-90-38zM896 704c0 18-6 32-18 44-14 14-28 20-46 20h-704c-18 0-34-6-46-20-12-12-18-26-18-44v-640c0-18 6-34 18-46s28-18 46-18h704c18 0 32 6 46 18 12 12 18 28 18 46zM800 320h-64c-8 0-16 4-22 10s-10 14-10 22v64c0 8 4 16 10 22s14 10 22 10h64c8 0 16-4 22-10s10-14 10-22v-64c0-8-4-16-10-22s-14-10-22-10zM800 512h-64c-8 0-16 4-22 10s-10 14-10 22v64c0 8 4 16 10 22s14 10 22 10h64c8 0 16-4 22-10s10-14 10-22v-64c0-8-4-16-10-22s-14-10-22-10zM608 128h-64c-8 0-16 4-22 10s-10 14-10 22v64c0 8 4 16 10 22s14 10 22 10h64c8 0 16-4 22-10s10-14 10-22v-64c0-8-4-16-10-22s-14-10-22-10zM608 320h-64c-8 0-16 4-22 10s-10 14-10 22v64c0 8 4 16 10 22s14 10 22 10h64c8 0 16-4 22-10s10-14 10-22v-64c0-8-4-16-10-22s-14-10-22-10zM608 512h-64c-8 0-16 4-22 10s-10 14-10 22v64c0 8 4 16 10 22s14 10 22 10h64c8 0 16-4 22-10s10-14 10-22v-64c0-8-4-16-10-22s-14-10-22-10zM416 128h-64c-8 0-16 4-22 10s-10 14-10 22v64c0 8 4 16 10 22s14 10 22 10h64c8 0 16-4 22-10s10-14 10-22v-64c0-8-4-16-10-22s-14-10-22-10zM416 320h-64c-8 0-16 4-22 10s-10 14-10 22v64c0 8 4 16 10 22s14 10 22 10h64c8 0 16-4 22-10s10-14 10-22v-64c0-8-4-16-10-22s-14-10-22-10zM416 512h-64c-8 0-16 4-22 10s-10 14-10 22v64c0 8 4 16 10 22s14 10 22 10h64c8 0 16-4 22-10s10-14 10-22v-64c0-8-4-16-10-22s-14-10-22-10zM224 128h-64c-8 0-16 4-22 10s-10 14-10 22v64c0 8 4 16 10 22s14 10 22 10h64c8 0 16-4 22-10s10-14 10-22v-64c0-8-4-16-10-22s-14-10-22-10zM224 320h-64c-8 0-16 4-22 10s-10 14-10 22v64c0 8 4 16 10 22s14 10 22 10h64c8 0 16-4 22-10s10-14 10-22v-64c0-8-4-16-10-22s-14-10-22-10z" />
<glyph unicode="&#x6b;" glyph-name="wifi-2" d="M896 256h-128l182 660c2 10 8 20 16 30s18 16 26 12c10-2 18-6 24-14 6-6 10-14 8-22zM0 922c0 8 2 16 8 22 6 8 14 12 24 14 8 4 18-2 26-12s14-20 16-30l182-660h-128zM128 192h768c36 0 66-12 90-38 26-24 38-54 38-90s-12-66-38-90c-24-26-54-38-90-38h-768c-36 0-66 12-90 38-26 24-38 54-38 90s12 66 38 90c24 26 54 38 90 38zM768 0c18 0 32 6 46 18 12 12 18 28 18 46s-6 32-18 44c-14 14-28 20-46 20s-34-6-46-20c-12-12-18-26-18-44s6-34 18-46c12-12 28-18 46-18zM512 0c18 0 32 6 46 18 12 12 18 28 18 46s-6 32-18 44c-14 14-28 20-46 20s-34-6-46-20c-12-12-18-26-18-44s6-34 20-46c12-12 26-18 44-18zM256 0c18 0 34 6 46 18s18 28 18 46c0 18-6 32-18 44-12 14-28 20-46 20s-32-6-44-20c-14-12-20-26-20-44s6-34 20-46c12-12 26-18 44-18z" />
<glyph unicode="&#x6c;" glyph-name="vnt-hd" d="M896 64h-768c-36 0-66 12-90 38-26 24-38 54-38 90v512c0 36 12 66 38 90 24 26 54 38 90 38h768c36 0 66-12 90-38 26-24 38-54 38-90v-512c0-36-12-66-38-90-24-26-54-38-90-38zM448 672c0 8-4 16-10 22s-14 10-22 10h-64c-8 0-16-4-22-10s-10-14-10-22v-160h-128v160c0 8-4 16-10 22s-14 10-22 10h-64c-8 0-16-4-22-10s-10-14-10-22v-448c0-8 4-16 10-22s14-10 22-10h64c8 0 16 4 22 10s10 14 10 22v160h128v-160c0-8 4-16 10-22s14-10 22-10h64c8 0 16 4 22 10s10 14 10 22zM960 512c0 54-18 98-56 136s-84 56-136 56h-160c-8 0-16-4-22-10s-10-14-10-22v-448c0-8 4-16 10-22s14-10 22-10h160c52 0 98 18 136 56s56 82 56 136zM768 320h-64v256h64c18 0 32-6 46-20 12-12 18-26 18-44v-128c0-18-6-32-18-46-14-12-28-18-46-18z" />
<glyph unicode="&#x6d;" glyph-name="webhostinghub-glyphs-40" d="M1004 404c-12-14-28-20-46-20s-34 6-46 20l-28 26-84-430c-2-14-10-28-24-42s-26-22-40-22h-446c-14 0-28 8-42 22s-20 28-22 42l-84 432-28-28c-14-14-30-20-48-20s-34 6-46 20c-14 12-20 28-20 46s6 34 20 46l444 444c12 14 28 20 48 18 20 2 36-4 50-18l444-444c12-12 18-28 18-46s-6-34-20-46zM512 64c18 0 34 6 46 18s18 28 18 46c0 18-6 32-18 44-12 14-28 20-46 20s-32-6-44-20c-12-12-18-26-18-44s6-34 18-46c12-12 26-18 44-18zM514 576c-36 0-66-12-92-38-24-24-36-54-36-90s12-66 36-90c26-26 56-38 92-38 34 0 64 12 90 38 24 24 36 54 36 90s-12 66-36 90c-26 26-56 38-90 38z" />
<glyph unicode="&#x6e;" glyph-name="vnt-visa" d="M960 64h-896c-18 0-32 6-44 18-14 12-20 28-20 46v128h1024v-128c0-18-6-34-18-46s-28-18-46-18zM0 768c0 18 6 32 18 44 12 14 28 20 46 20h896c18 0 34-6 46-20 12-12 18-26 18-44v-64h-1024zM330 320l52 320h82l-52-320zM858 640h68l66-320h-76l-20 32h-96l-18-32h-86l124 296v2c0 0 2 2 4 6s6 6 8 8c2 0 4 2 10 6 6 2 10 4 16 2zM896 416l-28 136-36-136zM558 320c-16 0-32 2-48 4-16 4-28 6-34 8l-12 4 12 70c12-8 28-14 50-18s42-4 60 0c18 4 28 14 28 26 0 10-6 18-18 26s-26 16-40 22c-14 6-28 16-40 28-12 14-18 30-18 48 0 20 6 36 16 50 10 16 24 26 40 32 16 8 30 12 44 16 14 2 28 4 40 4s24-2 36-4c12-2 22-4 30-6l10-4-12-66c-18 10-42 16-72 14-30 0-46-10-46-26 0-8 6-14 18-22s26-16 42-22c14-6 28-16 40-30s18-30 18-48c0-24-10-44-26-62-16-16-34-28-54-34-22-6-42-10-64-10zM102 640c10 0 20-2 26-8 6-4 10-10 12-14l2-8 28-144 10-46 78 220h90l-132-320h-88l-72 278c-14 8-34 16-56 24v18z" />
<glyph unicode="&#x6f;" glyph-name="webhostinghub-glyphs-42" d="M1024 320c0-72-22-140-68-204 6-34 4-50-8-48-4 0-8 4-14 8 0 2-2 2-4 4s-2 2-2 2c-42-46-94-82-154-108-62-26-128-38-198-38-104 0-198 28-278 82-80 56-132 126-156 212-54 10-96 20-124 32-8 4-12 6-16 10-2 4-4 8-2 12s4 8 6 12c2 4 6 10 12 16l4 4c0 2 2 4 6 8 2 4 4 8 6 8 0 0 2 2 4 6 4 4 6 6 6 6l6 4c0 0 2 0 8 2 4 2 6 4 6 2s4-2 10-2c6 2 8 0 10-4 10-4 24-12 44-24 0 10 0 22 2 32-18 16-36 34-54 54s-30 36-36 46c-2 2-4 6-6 8 0 2-2 4-2 6s0 4 0 6c0 2 2 4 2 4 0 2 2 4 4 6s2 2 4 2c0 2 2 2 4 4 4 2 6 4 6 4 2 0 4 0 8 2s6 4 8 4c0 0 4 2 8 4s6 4 8 4c0 0 2 0 6 2s6 2 8 2c2 0 4 0 6 0 4 0 6 0 8 0 2-2 4-2 6-4 2 0 4-2 6-4s4-6 6-10c6-8 14-22 24-42 24 68 62 128 116 182s114 92 184 114c-16 4-34 6-54 6-22 0-38 0-52 2s-24 6-28 12c-2 4-4 6-4 8-2 2-2 6-2 8v6c0 0 0 2 2 4 2 4 4 6 4 6 0-2 2 0 6 4s6 6 8 4c0 0 4 2 8 6l10 4c16 8 34 14 54 14 18 0 38-2 58-10 18-6 36-14 54-22 18-10 34-20 52-32h6c4 0 16 0 34-2l-2 2c-8 18-22 34-38 52-16 16-30 30-42 42-10 12-16 24-16 34 0 18 6 32 20 44 12 14 26 20 44 20 22 0 44-6 64-20 20-12 36-28 50-48 14-18 26-40 38-62 12-24 20-44 26-62s10-36 12-50c70-36 128-86 174-152l20 10 64-96-30-12c20-50 30-100 30-148zM896 160c0 10-14 28-44 54-30 28-50 42-60 42-14 0-32-4-54-10s-34-14-34-22c0-8 2-14 6-18 2-4 8-8 16-10s14-4 20-4c4 0 12 0 22 0 22 0 56-10 100-30 18-8 28-8 28-2zM776 64c16 0 42 18 80 54-18 6-36 12-56 16-20 6-44 10-70 16-26 4-42 8-50 10 8-20 24-42 48-64 22-22 38-32 48-32zM908 436l-132-50c-6-12-8-22-8-34 0 12-2 22-6 34l-134 50c-16-8-28-20-38-34-10-16-14-32-14-50 0-26 10-50 28-68s42-28 68-28c26 0 50 10 68 28s28 42 28 68c0-26 10-50 28-68s42-28 68-28c26 0 50 10 68 28s28 42 28 68c0 18-4 34-14 50-10 14-22 26-38 34zM864 320c-8 0-16 4-22 10s-10 14-10 22c0 8 4 16 10 22s14 10 22 10c8 0 16-4 22-10s10-14 10-22c0-8-4-16-10-22s-14-10-22-10zM672 320c-8 0-16 4-22 10s-10 14-10 22c0 8 4 16 10 22s14 10 22 10c8 0 16-4 22-10s10-14 10-22c0-8-4-16-10-22s-14-10-22-10z" />
<glyph unicode="&#x70;" glyph-name="vnt-aim" d="M850 202l-76 76 34 34c14-4 32-10 54-16s40-10 54-14c12-4 26-8 40-14s24-12 32-20c28-28 40-62 36-104zM706 208l46 46c24-26 52-60 84-98 30-40 56-72 76-98l28-38c-94 68-172 130-234 188zM236 518c-30 30-44 64-44 104s14 76 42 104c28 28 64 42 104 42s74-14 104-42c28-28 126-154 294-374l-128-128c-220 168-344 266-372 294zM0 960c10-6 22-14 38-24 14-10 40-30 78-58s70-56 96-82l-48-48c-28 28-54 60-82 94-26 36-48 64-62 86s-20 32-20 32zM758 110l58-174c-42-4-76 8-104 36-8 8-14 18-20 32s-10 28-14 40c-4 14-8 32-14 54s-12 40-16 54l34 34z" />
<glyph unicode="&#x71;" glyph-name="vnt-addu" d="M960 64h-64v-64c0-18-6-34-18-46-14-12-28-18-46-18s-34 6-46 18c-12 12-18 28-18 46v64h-64c-18 0-34 6-46 18-12 14-18 28-18 46s6 34 18 46c12 12 28 18 46 18h64v64c0 18 6 34 18 46s28 18 46 18c18 0 32-6 46-18 12-12 18-28 18-46v-64h64c18 0 32-6 46-18 12-12 18-28 18-46s-6-32-18-46c-14-12-28-18-46-18zM710 320c-22-18-44-32-70-42v-28c-18-6-34-18-46-34s-18-36-18-56v-64c0-26 10-50 28-68s42-28 68-28h32v-62c-46-2-110-2-192-2h-76c0 0-26 0-80 0-54 2-84 2-88 4-4 0-30 2-80 4s-74 4-76 8c0 4-20 8-56 12-38 4-52 10-42 16 10 8 4 14-14 22 2 60 38 112 110 156 72 46 164 76 274 90v32c-34 16-64 38-90 66s-46 60-60 98c-14 38-26 78-32 122-6 42-10 88-10 138 0 44 8 82 26 114 16 34 38 60 68 80s64 36 102 46c38 10 78 16 124 16s88-6 126-16c38-10 70-26 100-46s52-46 70-80c16-32 24-70 24-114 0-146-24-256-74-330-24-12-40-30-48-54z" />
<glyph unicode="&#x72;" glyph-name="vnt-cloudp" d="M896-64h-768c-36 0-66 12-90 38-26 24-38 54-38 90s12 66 38 90c24 26 54 38 90 38h768c36 0 66-12 90-38 26-24 38-54 38-90s-12-66-38-90c-24-26-54-38-90-38zM192 128c-18 0-34-6-46-18s-18-28-18-46c0-18 6-32 18-46 12-12 28-18 46-18s32 6 46 18c12 12 18 28 18 46s-6 34-18 46c-14 12-28 18-46 18zM832 128h-384c-18 0-34-6-46-18s-18-28-18-46c0-18 6-32 18-46 12-12 28-18 46-18h384c18 0 32 6 46 18 12 12 18 28 18 46s-6 34-18 46c-14 12-28 18-46 18zM736 256h-480c-54 0-98 18-136 56s-56 82-56 136c0 38 10 72 30 104 20 30 48 54 82 70 22-36 50-66 86-90s76-40 118-48c-38 24-68 54-90 92-22 40-34 82-34 128 0 70 26 130 76 180s110 76 180 76c54 0 102-16 146-46s74-70 94-118c-70-12-126-44-172-98s-68-116-68-186c0-8 0-14 2-22 2 60 24 110 68 152 42 42 94 62 154 62 62 0 114-22 158-66s66-96 66-158c0-62-22-114-66-158s-96-66-158-66z" />
<glyph unicode="&#x73;" glyph-name="vnt-secure" d="M960-64h-832c-18 0-32 6-44 18-14 14-20 28-20 46v64h-32c-8 0-16 4-22 10s-10 14-10 22v192c0 8 4 16 10 22s14 10 22 10h32v256h-32c-8 0-16 4-22 10s-10 14-10 22v192c0 8 4 16 10 22s14 10 22 10h32v64c0 18 6 34 20 46 12 12 26 18 44 18h832c18 0 32-6 46-18 12-12 18-28 18-46v-896c0-18-6-32-18-46-14-12-28-18-46-18zM896 768c0 18-6 34-18 46s-28 18-46 18h-576c-18 0-34-6-46-20-12-12-18-26-18-44v-640c0-18 6-32 18-46 12-12 28-18 46-18h576c18 0 32 6 46 18 12 14 18 28 18 46zM768 128h-448c-18 0-34 6-46 18-12 14-18 28-18 46v512c0 18 6 32 18 44 12 14 28 20 46 20h448c18 0 32-6 46-20 12-12 18-26 18-44v-512c0-18-6-34-18-46-14-12-28-18-46-18zM576 576c-36 0-66-12-90-38-26-24-38-54-38-90s12-66 38-90c24-26 54-38 90-38s66 12 90 38c26 24 38 54 38 90s-12 66-38 90c-24 26-54 38-90 38zM576 384c-18 0-34 6-46 18s-18 28-18 46c0 18 6 32 18 44 12 14 28 20 46 20s32-6 46-18c12-12 18-28 18-46s-6-34-18-46c-14-12-28-18-46-18z" />
<glyph unicode="&#x74;" glyph-name="vnt-ic" d="M992 192h-96v128h96c8 0 16-4 22-10s10-14 10-22v-64c0-8-4-16-10-22s-14-10-22-10zM992 384h-96v128h96c8 0 16-4 22-10s10-14 10-22v-64c0-8-4-16-10-22s-14-10-22-10zM992 576h-96v128h96c8 0 16-4 22-10s10-14 10-22v-64c0-8-4-16-10-22s-14-10-22-10zM768 128h-512c-18 0-32 6-44 18-14 14-20 28-20 46v512c0 18 6 32 18 44 12 14 28 20 46 20h512c18 0 34-6 46-20 12-12 18-26 18-44v-512c0-18-6-34-18-46s-28-18-46-18zM640 928c0 8 4 16 10 22s14 10 22 10h64c8 0 16-4 22-10s10-14 10-22v-96h-128zM448 928c0 8 4 16 10 22s14 10 22 10h64c8 0 16-4 22-10s10-14 10-22v-96h-128zM256 928c0 8 4 16 10 22s14 10 22 10h64c8 0 16-4 22-10s10-14 10-22v-96h-128zM0 224v64c0 8 4 16 10 22s14 10 22 10h96v-128h-96c-8 0-16 4-22 10s-10 14-10 22zM0 416v64c0 8 4 16 10 22s14 10 22 10h96v-128h-96c-8 0-16 4-22 10s-10 14-10 22zM0 608v64c0 8 4 16 10 22s14 10 22 10h96v-128h-96c-8 0-16 4-22 10s-10 14-10 22zM384-32c0-8-4-16-10-22s-14-10-22-10h-64c-8 0-16 4-22 10s-10 14-10 22v96h128zM576-32c0-8-4-16-10-22s-14-10-22-10h-64c-8 0-16 4-22 10s-10 14-10 22v96h128zM768-32c0-8-4-16-10-22s-14-10-22-10h-64c-8 0-16 4-22 10s-10 14-10 22v96h128z" />
<glyph unicode="&#x75;" glyph-name="vnt-secure2" d="M960-64h-896c-18 0-32 6-44 18-14 14-20 28-20 46v896c0 18 6 32 20 44 12 14 26 20 44 20h896c18 0 34-6 46-20 12-12 18-26 18-44v-896c0-18-6-34-18-46s-28-18-46-18zM896 768c0 18-6 34-18 46s-28 18-46 18h-640c-18 0-32-6-44-18-14-12-20-28-20-46v-64h-32c-8 0-16-4-22-10s-10-14-10-22v-128c0-8 4-16 10-22s14-10 22-10h32v-128h-32c-8 0-16-4-22-10s-10-14-10-22v-128c0-8 4-16 10-22s14-10 22-10h32v-64c0-18 6-34 20-46 12-12 26-18 44-18h640c18 0 34 6 46 18s18 28 18 46zM768 128h-512c-18 0-32 6-44 18-14 14-20 28-20 46h96c8 0 16 4 22 10s10 14 10 22v128c0 8-4 16-10 22s-14 10-22 10h-96v128h96c8 0 16 4 22 10s10 14 10 22v128c0 8-4 16-10 22s-14 10-22 10h-96c0 18 6 34 20 46 12 12 26 18 44 18h512c18 0 34-6 46-20 12-12 18-26 18-44v-512c0-18-6-34-18-46s-28-18-46-18zM576 576c-36 0-66-12-90-38-26-24-38-54-38-90s12-66 38-90c24-26 54-38 90-38s66 12 90 38c26 24 38 54 38 90s-12 66-38 90c-24 26-54 38-90 38zM576 384c-18 0-32 6-44 18-14 14-20 28-20 46s6 32 20 44c12 14 26 20 44 20s34-6 46-18c12-12 18-28 18-46s-6-34-18-46c-12-12-28-18-46-18zM256 608c0-8-4-16-10-22s-14-10-22-10h-64c-8 0-16 4-22 10s-10 14-10 22c0 8 4 16 10 22s14 10 22 10h64c8 0 16-4 22-10s10-14 10-22zM160 320h64c8 0 16-4 22-10s10-14 10-22c0-8-4-16-10-22s-14-10-22-10h-64c-8 0-16 4-22 10s-10 14-10 22c0 8 4 16 10 22s14 10 22 10z" />
<glyph unicode="&#x76;" glyph-name="vnt-dbhost" d="M512-64c-92 0-178 6-256 16-80 12-142 28-188 48s-68 40-68 64v128c0 6 2 12 6 18 42-24 108-44 202-60 94-14 196-22 304-22s210 8 304 22c94 16 160 36 202 60 4-6 6-12 6-18v-128c0-24-22-44-68-64s-108-36-186-48c-80-10-166-16-258-16zM512 192c-92 0-178 6-256 16-80 12-142 28-188 48s-68 40-68 64v128c0 6 2 12 6 18 42-24 108-44 202-60 94-14 196-22 304-22s210 8 304 22c94 16 160 36 202 60 4-6 6-12 6-18v-128c0-24-22-44-68-64s-108-36-186-48c-80-10-166-16-258-16zM512 448c-92 0-178 6-256 16-80 12-142 28-188 48s-68 40-68 64v128c0 6 2 12 6 18 42-24 108-44 202-60 94-14 196-22 304-22s210 8 304 22c94 16 160 36 202 60 4-6 6-12 6-18v-128c0-24-22-44-68-64s-108-36-186-48c-80-10-166-16-258-16zM512 704c-92 0-178 6-256 16-80 12-142 28-188 48s-68 40-68 64c0 24 22 44 68 64s108 36 188 46c78 12 164 18 256 18s178-6 258-18c78-10 140-26 186-46s68-40 68-64c0-24-22-44-68-64s-108-36-186-48c-80-10-166-16-258-16z" />
<glyph unicode="&#x77;" glyph-name="vnt-dbadd" d="M1024 192v-128c0-32-42-60-124-84s-186-38-310-42c-4-2-10-2-14-2h-128c-4 0-10 0-14 2-124 4-228 18-310 42s-124 52-124 84v128c0 6 2 12 6 18 42-24 108-44 202-60-10 12-16 26-16 42v28c-60 12-106 26-140 44s-52 36-52 56v128c0 6 2 12 6 18 32-18 82-36 150-50s144-22 228-28v64c-112 8-204 22-276 46-72 22-108 48-108 78v128c0 6 2 12 6 18 42-24 108-44 202-60 94-14 196-22 304-22s210 8 304 22c94 16 160 36 202 60 4-6 6-12 6-18v-128c0-30-36-56-108-78-72-24-164-38-276-46v-64c84 6 160 14 228 28s118 32 150 50c4-6 6-12 6-18v-128c0-20-16-38-50-56s-82-32-142-44v-28c0-16-4-30-14-42 92 16 158 36 200 60 4-6 6-12 6-18zM704 320h-128v128c0 18-6 32-18 44-14 14-28 20-46 20s-32-6-44-20c-14-12-20-26-20-44v-128h-128c-18 0-32-6-44-20-14-12-20-26-20-44s6-34 20-46c12-12 26-18 44-18h128v-128c0-18 6-34 20-46 12-12 26-18 44-18s32 6 46 18c12 12 18 28 18 46v128h128c18 0 32 6 46 18 12 12 18 28 18 46s-6 32-18 44c-14 14-28 20-46 20zM512 704c-92 0-178 6-256 16-80 12-142 28-188 48s-68 40-68 64c0 24 22 44 68 64s108 36 188 46c78 12 164 18 256 18s178-6 258-18c78-10 140-26 186-46s68-40 68-64c0-24-22-44-68-64s-108-36-186-48c-80-10-166-16-258-16z" />
<glyph unicode="&#x78;" glyph-name="vnt-dbdel" d="M794 148c104 16 180 36 224 62 4-6 6-12 6-18v-128c0-24-22-44-68-64s-108-36-186-48c-80-10-166-16-258-16s-178 6-256 16c-80 12-142 28-188 48s-68 40-68 64v128c0 6 2 12 6 18 44-26 120-46 224-62 4 8 8 14 12 18l40 40c-86 10-154 26-204 46-52 20-78 44-78 68v128c0 6 2 12 6 18 44-26 118-46 220-62 4 14 8 24 16 32l28 26c-82 12-148 28-196 48-50 20-74 42-74 66v128c0 6 2 12 6 18 42-24 108-44 202-60 94-14 196-22 304-22s210 8 304 22c94 16 160 36 202 60 4-6 6-12 6-18v-128c0-24-24-46-74-66s-114-36-196-48l28-26c6-8 12-18 16-32 102 16 176 36 220 62 4-6 6-12 6-18v-128c0-24-26-48-78-68s-120-36-204-46l40-40c4-4 8-10 12-18zM686 344c12 12 18 26 18 44 0 16-6 30-18 42s-26 18-44 18c-16 0-30-6-42-18l-88-86-88 86c-12 12-26 18-44 18-16 0-30-6-42-18s-18-26-18-42c0-18 6-32 18-44l86-88-86-88c-12-12-18-26-18-42 0-18 6-32 18-44s26-18 42-18c18 0 32 6 44 18l88 86 88-86c12-12 26-18 42-18 18 0 32 6 44 18s18 26 18 44c0 16-6 30-18 42l-86 88zM512 704c-92 0-178 6-256 16-80 12-142 28-188 48s-68 40-68 64c0 24 22 44 68 64s108 36 188 46c78 12 164 18 256 18s178-6 258-18c78-10 140-26 186-46s68-40 68-64c0-24-22-44-68-64s-108-36-186-48c-80-10-166-16-258-16z" />
<glyph unicode="&#x79;" glyph-name="vnt-bwearth" d="M882 638c-8 2-12 2-16 2-24 0-46-8-64-26-40 18-78 34-114 44-58 20-118 34-182 46-6 16-14 30-26 40 16 80 38 150 66 214 84-6 162-30 232-72s126-98 170-168c-24-26-46-54-66-80zM418 768c-18 0-34-4-50-14-54 40-108 74-162 102 82 62 174 96 278 102-26-58-48-120-64-190zM70 706c22 38 52 74 86 108 46-24 92-52 142-86-86 2-162-6-228-22zM322 666c0-20 8-38 20-54 14-16 30-26 50-32-4-46-6-92-6-134 0-28 0-62 2-100-14-4-28-12-38-24-36 14-72 30-104 48 6 14 10 30 10 44 0 28-10 50-28 68-18 20-42 28-68 28-30 0-54-10-72-34-28 26-54 52-76 80 6 28 16 56 28 84 80 24 174 32 282 26zM66 406c2-24 12-44 30-62 18-16 40-26 64-26 8 0 16 2 24 4 42-24 88-46 138-64v-4c0-26 8-48 26-66s40-28 66-30c16-80 40-154 70-222-68 4-130 20-190 48s-110 66-154 110c-42 46-76 100-102 160-26 62-38 126-38 192 0 2 0 10 2 28 18-24 40-46 64-68zM502 210c48-8 96-14 144-18 4-12 12-24 22-36-16-70-24-138-28-204-34-8-66-14-94-16-32 72-56 152-72 242 12 8 20 18 28 32zM812 162c8 10 14 22 18 34 48 4 94 10 140 18-32-62-76-116-132-162-6 34-14 72-26 110zM648 256c-46 4-92 10-138 18-8 34-26 58-56 70-4 40-4 74-4 102 0 44 2 90 6 138 0 0 2 0 4 2s4 2 4 2c26-26 48-48 68-70 58-64 108-136 148-218-14-12-26-26-32-44zM738 126c0 0 4 2 10 2 12-40 20-82 26-122-20-10-44-22-70-34 4 52 12 104 24 156 4 0 8-2 10-2zM732 366c0-2-2-4-2-6-2-2-2-4-2-6-42 76-92 144-148 206-22 24-46 50-74 76 0 0 0 2 0 2l2 2c56-12 108-26 160-42 32-10 66-24 104-40-2-6-2-12-2-16 0-20 6-38 18-54-22-42-42-82-56-122zM780 308c8 24 12 36 12 36 12 34 30 68 50 106 8-2 16-4 24-4 22 0 44 8 62 24 32-22 64-48 96-76-4-38-12-74-24-110-56-12-114-20-174-24-8 22-24 38-46 48zM962 544c0 22-8 42-22 60 14 18 28 34 42 48 24-54 38-110 42-168-22 16-44 32-64 44 2 6 2 12 2 16z" />
<glyph unicode="&#x7a;" glyph-name="vnt-time" d="M512-64c-70 0-136 14-198 40-64 28-118 64-164 110s-82 100-110 162c-26 64-40 130-40 200s14 136 40 198c28 64 64 118 110 164s100 82 164 110c62 26 128 40 198 40s136-14 200-40c62-28 116-64 162-110s82-100 110-164c26-62 40-128 40-198s-14-136-40-200c-28-62-64-116-110-162s-100-82-162-110c-64-26-130-40-200-40zM782 514c-8-4-16-4-24 0-10 4-16 12-20 20-4 10-4 18 0 28s10 16 20 18l94 44c-38 72-92 128-164 164l-42-96c-4-8-10-14-20-18s-18-4-28 0c-8 4-14 10-18 18-4 10-4 18 0 26l42 98c-36 10-72 16-110 16s-74-6-110-16l44-98c4-8 4-16 0-26-4-8-12-14-20-18-10-4-18-4-28 0s-16 10-18 18l-44 96c-72-36-126-90-164-164l96-42c8-4 12-10 16-20 4-8 4-18 0-28-4-8-10-14-18-18s-16-4-24 0l-98 42c-10-36-16-72-16-110s6-74 16-110l98 42c8 4 16 4 24 0s14-10 18-20c4-8 4-18 0-26-4-10-8-16-16-20l-96-42c38-72 92-128 164-166l42 96c4 8 10 14 20 18 8 4 18 4 28 0 8-4 14-10 18-18s4-16 0-26l-42-96c36-10 72-16 110-16s74 6 110 16l-42 96c-4 10-4 18 0 26s10 14 20 18c8 4 18 4 26 0 10-4 16-10 20-18l42-96c72 38 126 94 164 166l-94 42c-10 4-16 10-20 20s-4 18 0 28c4 8 10 14 20 18 8 4 16 4 24 0l98-42c10 36 16 72 16 110s-6 74-16 110zM512 384c-18 0-34 6-46 18s-18 28-18 46c0 14 4 26 12 38s20 18 34 22l242 196h16c4 0 8-2 12-4 2-4 4-8 4-12v-16l-194-244c-4-12-12-24-24-32s-24-12-38-12z" />
<glyph unicode="&#x7b;" glyph-name="painting-roll-streamline" d="M896 790h-42v42c0 48-38 86-86 86h-512c-48 0-86-38-86-86v-42c-54 0-84-32-84-86v-86c0-54 30-84 84-84h320c12 0 22-10 22-22v-174c-40-8-64-46-64-104v-234c0-36 28-64 64-64h42c36 0 64 28 64 64v234c0 58-22 96-64 104v174c0 36-28 64-64 64h-320c-30 0-42 12-42 42v86c0 30 12 42 42 42v-42c0-48 38-86 86-86h512c48 0 86 38 86 86v42h42zM576 234v-234c0-12-10-22-22-22h-42c-12 0-22 10-22 22v234c0 64 32 64 44 64 10 0 42 0 42-64zM810 704c0-24-18-42-42-42h-512c-24 0-42 18-42 42v128c0 24 18 42 42 42h512c24 0 42-18 42-42z" />
<glyph unicode="&#x7c;" glyph-name="vnt-map" d="M810 280l-272-344-272 344c-48 52-82 112-100 180s-18 136 0 204c18 68 52 128 100 180 38 38 80 66 128 86s96 30 144 30c48 0 96-10 144-30s90-48 128-86c48-52 82-112 100-180s18-136 0-204c-18-68-52-128-100-180zM538 830c-70 0-130-24-180-74s-76-110-76-182c0-70 26-130 76-180s110-74 180-74c72 0 132 24 182 74s76 110 76 180c0 72-26 132-76 182s-110 74-182 74zM540 448c-36 0-66 12-92 38-24 24-36 54-36 90s12 66 36 90c26 26 56 38 92 38 34 0 64-12 90-38 24-24 38-54 38-90s-14-66-38-90c-26-26-56-38-90-38z" />
<glyph unicode="&#x7d;" glyph-name="alert-circled" d="M954 116l-414 698c-6 10-16 18-28 18s-22-8-28-18l-414-698c-4-10-8-26-4-36 6-10 18-16 28-16h836c10 0 22 6 28 16s2 26-4 36zM576 160h-128v96h128zM576 320h-128v288h128z" />
<glyph unicode="&#x7e;" glyph-name="android-add" d="M832 406h-278v-278h-84v278h-278v84h278v278h84v-278h278z" />
<glyph unicode="&#xe000;" glyph-name="vnt-award0" d="M1024 896l-218-382c-54 58-118 96-194 114l154 268c10 18 24 34 44 46 18 12 38 20 56 20h128c18 0 30-8 36-20s4-28-6-46zM842 256c0-58-16-112-44-160-28-50-66-88-116-118-50-28-102-42-160-42s-112 14-162 42c-50 30-88 68-116 118-28 48-42 102-42 160s14 112 42 160c28 50 66 90 116 118s104 42 162 42c58 0 110-14 160-42s88-68 116-118c28-48 44-102 44-160zM18 896c-10 18-12 34-6 46s18 20 36 20h130c18 0 36-8 56-20 18-12 34-28 44-46l152-268c-76-18-140-56-192-114z" />
<glyph unicode="&#xe001;" glyph-name="vnt-awardstart" d="M944 534l-94-94c-22 38-48 72-82 100v420h128c18 0 34-6 46-20 12-12 18-26 18-44v-320c0-16-6-30-16-42zM512-64c-58 0-112 14-160 42-50 30-88 68-116 118-30 48-44 102-44 160s14 112 44 160c28 50 66 88 116 116 48 30 102 44 160 44s112-14 160-44c50-28 88-66 118-116 28-48 42-102 42-160s-14-112-42-160c-30-50-68-88-118-118-48-28-102-42-160-42zM594 354l-82 168-80-168-188-24 138-126-36-182 166 90 166-90-34 182 138 126zM640 960h64v-372c-20 12-42 20-64 28zM320 960h64v-344c-22-8-44-16-64-28zM176 440l-94 94c-12 12-18 26-18 42v320c0 18 6 32 20 44 12 14 26 20 44 20h128v-420c-34-28-60-62-80-100z" />
<glyph unicode="&#xe002;" glyph-name="android-alarm-clock" d="M940 710l-196 164-56-66 196-164zM334 810l-56 66-194-166 56-66zM534 614h-64v-254l202-122 32 54-170 100zM512 784c-214 0-386-172-386-382s172-382 386-382c212 0 386 172 386 382s-174 382-386 382zM512 104c-164 0-300 134-300 298s136 298 300 298c164 0 300-134 300-298 0-166-136-298-300-298z" />
<glyph unicode="&#xe003;" glyph-name="receipt-shopping-streamline" d="M512 726h86c12 0 20 8 20 20s-8 22-20 22h-86c-12 0-22-10-22-22s10-20 22-20zM790 682h-236c-12 0-20-8-20-20s8-22 20-22h236c12 0 20 10 20 22s-8 20-20 20zM490 554h278c12 0 22 10 22 22s-10 22-22 22h-278c-12 0-20-10-20-22s8-22 20-22zM790 512h-300c-12 0-20-10-20-22s8-20 20-20h300c12 0 20 8 20 20s-8 22-20 22zM746 384c12 0 22 10 22 22s-10 20-22 20h-256c-12 0-20-8-20-20s8-22 20-22zM768 342h-298c-12 0-22-10-22-22s10-22 22-22h298c12 0 22 10 22 22s-10 22-22 22zM960 960h-532c-50 0-64-56-66-86 0-4 4-384-38-618h-196c-18 0-34-6-46-18-24-24-24-68-24-116 0-42 2-88-20-110-8-8-20-12-38-12v-42h532c30 0 52 8 70 24 16 16 22 38 28 60h158c18 0 36 8 50 24 90 92 102 500 100 702h86v22c0 64-8 170-64 170zM572 12c-10-8-22-12-40-12h-450c20 34 20 80 20 122 0 36-2 74 12 86 2 2 4 6 14 6h472c-10-26-10-58-10-92 2-42 2-88-18-110zM634 122c0 36 0 74 12 86 2 2 6 6 14 6s16-2 20-6c8-8 8-28 8-48-2-24-2-52 10-74h-64c0 12 0 24 0 36zM808 96c-10-10-18-10-20-10-22 0-38 4-46 12-12 12-12 38-12 62 0 28 0 58-20 78-12 12-28 18-50 18h-292c42 238 38 602 38 618 0 0 2 44 22 44h476c-6-16-8-32-10-44 6-186 0-690-86-778zM938 810c0 32 0 54 0 64 0 0 2 40 20 44v0c12-8 20-56 22-108z" />
<glyph unicode="&#xe004;" glyph-name="settings-streamline-1" d="M960 554h-80c-8 28-18 54-32 80l56 56c12 12 18 28 18 44 0 18-6 34-18 46l-60 60c-24 24-66 24-90 0l-56-56c-26 14-52 24-80 32v80c0 36-28 64-64 64h-84c-36 0-64-28-64-64v-80c-28-8-54-18-80-32l-56 56c-24 24-66 24-90 0l-60-60c-26-26-26-66 0-90l56-56c-14-26-24-52-32-80h-80c-18 0-34-6-46-18s-18-28-18-46v-84c0-36 28-64 64-64h80c8-28 18-54 32-80l-56-56c-12-12-20-28-20-44 0-18 8-34 20-46l60-60c24-24 66-24 90 0l56 56c26-14 52-24 80-32v-80c0-36 28-64 64-64h84c36 0 64 28 64 64v80c28 8 54 18 80 32l56-56c24-24 66-24 90 0l60 60c26 26 26 66 0 90l-56 56c14 26 24 52 32 80h80c18 0 34 6 46 18s18 28 18 46v84c0 36-28 64-64 64zM982 406c0-6-2-12-6-16s-10-6-16-6h-96c-10 0-18-6-20-16-8-34-22-68-40-98-6-8-4-18 2-26l68-68c8-8 8-22 0-30l-60-60c-8-8-22-8-30 0l-68 68c-8 6-18 8-26 2-30-18-64-32-98-40-10-2-16-10-16-20v-96c0-12-10-22-22-22h-84c-12 0-22 10-22 22v96c0 10-6 18-16 20-34 8-68 22-98 40-2 4-6 4-10 4-6 0-12-2-16-6l-68-68c-8-8-22-8-30 0l-60 60c-4 4-6 10-6 16 0 4 2 10 6 14l68 68c6 8 8 18 2 26-18 30-32 64-40 98-2 10-10 16-20 16h-96c-12 0-22 10-22 22v84c0 6 2 12 6 16s10 6 16 6h96c10 0 18 6 20 16 8 34 22 68 40 98 6 8 4 18-2 26l-68 68c-8 8-8 22 0 30l60 60c8 8 22 8 30 0l68-68c8-6 18-8 26-2 30 18 64 32 98 40 10 2 16 10 16 20v96c0 12 10 22 22 22h84c12 0 22-10 22-22v-96c0-10 6-18 16-20 34-8 68-22 98-40 8-6 18-4 26 2l68 68c8 8 22 8 30 0l60-60c4-4 6-10 6-16 0-4-2-10-6-14l-68-68c-6-8-8-18-2-26 18-30 32-64 40-98 2-10 10-16 20-16h96c12 0 22-10 22-22zM512 662c-118 0-214-96-214-214s96-214 214-214c118 0 214 96 214 214s-96 214-214 214zM512 278c-94 0-170 76-170 170s76 170 170 170c94 0 170-76 170-170s-76-170-170-170z" />
<glyph unicode="&#xe005;" glyph-name="vnt-folderss" d="M1022 802l-118-200v-602c0-18-8-34-20-46s-26-18-44-18h-640c-18 0-34 6-46 18-12 14-18 28-18 46v602l-120 200c-10 16-12 32-6 48 4 16 14 30 30 38 14 8 30 10 48 6 16-4 30-14 38-30l96-160h596l94 160c8 16 22 26 38 30 18 4 34 2 50-6 14-8 24-22 30-38 4-16 2-32-8-48zM712 382h-12c-8 20-20 40-34 58l6 10c8 16 10 32 6 48-6 16-16 30-30 38-16 8-32 10-50 6-16-4-30-14-38-30l-6-10c-12 4-24 4-34 4-12 0-24 0-36-4l-6 10c-8 16-22 26-38 30-18 4-34 2-48-6-16-8-26-22-30-38-6-16-4-32 6-48l6-10c-16-18-28-38-34-58h-12c-18 0-34-6-46-18s-18-26-18-44c0-16 6-32 18-44s28-18 46-18h12c6-20 18-40 34-58l-6-10c-10-14-12-30-6-48 4-16 14-28 30-38 14-8 30-10 48-6 16 6 30 16 38 30l6 8c12-2 24-2 36-2 10 0 22 0 34 2l6-8c8-14 22-24 38-30 18-4 34-2 50 6 14 10 24 22 30 38 4 18 2 34-6 48l-6 10c14 18 26 38 34 58h12c18 0 32 6 44 18s20 28 20 44c0 18-8 32-20 44s-26 18-44 18zM520 256c-18 0-34 6-46 18-12 14-18 28-18 46s6 32 18 44c12 14 28 20 46 20 16 0 32-6 44-20 12-12 20-26 20-44s-8-32-20-46c-12-12-28-18-44-18zM200 896c0 18 6 34 18 46s28 20 46 20h512c18 0 32-8 44-20s20-28 20-46v-128h-640z" />
<glyph unicode="&#xe006;" glyph-name="webhostinghub-glyphs" d="M896 64l-384-128-384 128-64 896h896zM192 832l36-384h412v-192l-128-32-128 32v128h-150l22-256 256-64 256 64 42 448h-426v128h436l12 128z" />
<glyph unicode="&#xe007;" glyph-name="webhostinghub-glyphs-1" d="M768 768c0-10 0-18 2-24 0-8 2-14 4-22 2-6 4-12 6-16s4-10 10-18c4-6 8-12 10-14 2-4 6-10 14-20 8-8 14-14 18-18 14-18 24-34 28-46s4-24 2-40c-6-22-10-42-16-60l-78-202-82 188c-6 14-20 54-38 118s-28 98-28 102c0 10 4 16 10 20 14 12 28 20 42 20v32h-288v-32c6 0 10-2 14-6s6-8 10-12c2-4 6-8 8-10 8-8 20-26 32-58l32-106-64-256-132 348c-14 34-20 56-20 62 0 8 4 14 12 20 16 12 30 18 44 18v32h-206c46 60 104 106 174 140s144 52 224 52c64 0 124-12 182-34s110-54 156-94c-26 0-46-6-60-16s-22-26-22-48zM66 698c16-18 36-60 60-122l194-512h64l128 384 160-384h64l152 390c4 12 12 30 24 54s22 48 30 70c8 22 14 42 16 60 2 26 2 46 2 58 42-78 64-160 64-248 0-92-22-178-68-258-46-78-108-140-186-186-80-46-166-68-258-68-70 0-136 14-198 40-64 28-118 64-164 110s-82 100-110 162c-26 64-40 130-40 200 0 90 22 172 66 250z" />
<glyph unicode="&#xe008;" glyph-name="settings-streamline-2" d="M956 124l-180 182 30 30c8 8 8 22 0 30s-22 8-30 0l-76-76-112 112 140 142c20-8 40-10 62-10 50 0 98 20 136 56 54 56 70 138 40 210-2 6-8 12-16 12-6 2-14 0-18-6l-76-74h-60v60l74 76c6 4 8 12 6 18 0 8-6 14-12 16-24 10-48 16-74 16-52 0-100-20-136-56-52-54-70-128-46-198l-142-140-220 222 14 14c4 4 6 10 6 16 0 4-2 10-6 14l-120 122c-8 8-22 8-30 0l-62-62c-4-4-6-8-6-14s2-12 6-16l122-120c4-4 10-6 14-6 6 0 12 2 16 6l14 14 222-220-140-142c-20 8-40 10-62 10-50 0-98-20-136-56-54-56-70-138-40-210 2-6 8-12 16-12 6-2 14 0 18 4l76 76h60v-60l-76-76c-4-4-6-12-4-18 0-8 6-14 12-16 24-10 48-16 74-16 52 0 100 20 136 56 52 52 70 128 46 198l142 140 112-112-76-76c-8-8-8-22 0-30 4-4 10-6 16-6 4 0 10 2 14 6l30 30 182-180c16-16 38-26 60-26s44 10 60 26c16 16 26 38 26 60s-10 44-26 60zM184 746l-90 90 30 30 90-90zM372 228c24-56 12-120-32-164-28-28-66-42-106-42-8 0-18 0-26 2l56 56c4 4 8 10 8 16v90c0 12-10 20-22 20h-90c-6 0-12-2-16-6l-56-56c-8 48 6 96 42 132 28 28 64 44 104 44 20 0 40-4 58-12 8-4 18-2 24 4l332 332c6 6 8 14 4 22-24 58-12 122 32 164 28 28 66 44 106 44 8 0 16 0 26-2l-56-56c-4-4-8-10-8-16v-90c0-12 10-22 22-22h90c6 0 12 4 16 8l56 56c8-48-6-98-42-132-28-28-64-44-104-44-20 0-40 4-58 12-8 4-18 2-24-4l-332-332c-6-6-8-16-4-24zM926 34c-16-16-44-16-60 0l-182 180 62 62 180-182c8-8 12-18 12-30s-4-22-12-30z" />
<glyph unicode="&#xe009;" glyph-name="settings-streamline" d="M938 960h-852c-48 0-86-38-86-86v-852c0-48 38-86 86-86h852c48 0 86 38 86 86v852c0 48-38 86-86 86zM982 22c0-24-20-44-44-44h-852c-24 0-44 20-44 44v852c0 24 20 44 44 44h852c24 0 44-20 44-44zM790 534h-44v276c0 12-8 22-20 22s-22-10-22-22v-276h-42c-12 0-22-10-22-22v-86c0-12 10-20 22-20h42v-64c0-12 10-22 22-22s20 10 20 22v64h44c12 0 20 8 20 20v86c0 12-8 22-20 22zM768 448h-86v42h86zM576 746h-42v64c0 12-10 22-22 22s-22-10-22-22v-64h-42c-12 0-22-8-22-20v-86c0-12 10-22 22-22h42v-276c0-12 10-22 22-22s22 10 22 22v276h42c12 0 22 10 22 22v86c0 12-10 20-22 20zM554 662h-84v42h84zM362 618h-42v192c0 12-10 22-22 22s-20-10-20-22v-192h-44c-12 0-20-8-20-20v-86c0-12 8-22 20-22h44v-148c0-12 8-22 20-22s22 10 22 22v148h42c12 0 22 10 22 22v86c0 12-10 20-22 20zM342 534h-86v42h86zM726 234c-48 0-86-38-86-84 0-48 38-86 86-86 46 0 84 38 84 86 0 46-38 84-84 84zM726 106c-24 0-44 20-44 44 0 22 20 42 44 42 22 0 42-20 42-42 0-24-20-44-42-44zM512 234c-48 0-86-38-86-84 0-48 38-86 86-86s86 38 86 86c0 46-38 84-86 84zM512 106c-24 0-42 20-42 44 0 22 18 42 42 42s42-20 42-42c0-24-18-44-42-44zM298 234c-46 0-84-38-84-84 0-48 38-86 84-86 48 0 86 38 86 86 0 46-38 84-86 84zM298 106c-22 0-42 20-42 44 0 22 20 42 42 42 24 0 44-20 44-42 0-24-20-44-44-44z" />
<glyph unicode="&#xe00a;" glyph-name="pen-streamline" d="M1018 834l-120 120c-4 4-10 6-16 6s-10-2-14-6l-18-16c-40 26-98 22-134-14l-240-242c-10-8-10-22 0-30 4-4 8-6 14-6s12 2 16 6l240 242c20 20 50 24 74 12l-616-616c-8-8-8-22 0-30l8-8c-8 2-14 2-20 2-34 0-66-14-90-38-80-78-80-232-80-238 0 0 0 0 0 0v-22h20c8 0 160 2 240 82 24 24 36 56 36 90 0 6 0 12-2 18l8-6c4-4 10-8 16-8s10 4 14 8l422 422c0 0 0 0 0 0s0 0 0 0l242 240c8 10 8 22 0 32zM252 68c-40-40-106-56-152-64l78 80c8 8 8 22 0 30s-22 8-30 0l-80-80c8 48 24 114 64 152 16 16 38 26 60 26s44-10 60-26c16-16 24-36 24-58 0-24-8-44-24-60zM340 184l-92 90 394 394 90-92zM762 606l-90 92 210 210 90-90z" />
<glyph unicode="&#xe00b;" glyph-name="locker-streamline-unlock" d="M490 284v-114c0-12 10-20 22-20s22 8 22 20v114c12 6 20 20 20 36 0 24-18 42-42 42s-42-18-42-42c0-16 8-30 20-36zM768 576v128c0 142-114 256-256 256s-256-114-256-256h42c0 118 96 214 214 214s214-96 214-214v-128h-598v-640h768v640zM854-22h-684v556h684z" />
<glyph unicode="&#xe00c;" glyph-name="computer-network-streamline" d="M42 598v20h512v278c0 36-26 64-60 64h-434c-32 0-60-28-60-64v-298c0-36 28-64 60-64h196v42h-196c-10 0-18 10-18 22zM42 896c0 12 8 22 18 22h434c10 0 18-10 18-22v-234h-470zM106 490c-12 0-20-8-20-20s8-22 20-22h150v42zM934 576h-546c-50 0-90-44-90-98v-358c0-54 40-98 90-98h252v-44h-170c-12 0-22-8-22-20s10-22 22-22h376c12 0 22 10 22 22s-10 20-22 20h-164v44h252c50 0 90 44 90 98v358c0 54-40 98-90 98zM388 534h546c26 0 48-26 48-56v-286h-640v286c0 30 20 56 46 56zM934 64h-546c-26 0-46 24-46 56v30h640v-30c0-32-22-56-48-56zM682 106c0-12-8-20-20-20s-22 8-22 20c0 12 10 22 22 22s20-10 20-22z" />
<glyph unicode="&#xe00d;" glyph-name="dashboard-speed-streamline" d="M512 960c-282 0-512-230-512-512s230-512 512-512c282 0 512 230 512 512s-230 512-512 512zM512-22c-258 0-470 212-470 470s212 470 470 470c258 0 470-212 470-470s-212-470-470-470zM784 720c-8 8-22 8-30 0l-198-198c-14 6-28 12-44 12-48 0-86-38-86-86s38-86 86-86c48 0 86 38 86 86 0 16-6 30-12 44l198 198c8 8 8 22 0 30zM512 406c-24 0-42 18-42 42s18 42 42 42c24 0 42-18 42-42s-18-42-42-42zM214 448c0 12-10 22-22 22h-86c-12 0-20-10-20-22s8-22 20-22h86c12 0 22 10 22 22zM208 346l-78-34c-12-4-16-16-12-28 4-8 12-12 20-12 2 0 6 0 8 2l78 32c12 4 16 16 12 28-4 10-16 16-28 12zM894 312l-78 34c-12 4-24-2-28-12-4-12 0-24 12-28l78-32c2-2 6-2 8-2 8 0 16 4 20 12 4 12 0 24-12 28zM918 470h-86c-12 0-22-10-22-22s10-22 22-22h86c12 0 20 10 20 22s-8 22-20 22zM788 562c4-8 12-12 20-12 2 0 6 0 8 0l78 34c12 4 16 16 12 28-4 10-16 16-28 10l-78-32c-12-4-16-16-12-28zM626 724c2-2 6-2 8-2 8 0 16 6 20 14l32 78c6 12 0 24-10 28-12 4-24 0-28-12l-34-78c-4-12 2-24 12-28zM512 746c12 0 22 10 22 22v86c0 12-10 20-22 20s-22-8-22-20v-86c0-12 10-22 22-22zM370 736c4-8 12-14 20-14 2 0 6 0 8 2 10 4 16 16 12 28l-34 78c-4 12-16 16-28 12-10-4-16-16-10-28zM300 690l-60 60c-8 8-22 8-30 0s-8-22 0-30l60-60c4-4 10-8 16-8s10 4 14 8c10 8 10 20 0 30zM130 584l78-34c2 0 6 0 8 0 8 0 16 4 20 12 4 12 0 24-12 28l-78 32c-12 6-24 0-28-10-4-12 0-24 12-28zM704 278h-384c-12 0-22-10-22-22v-128c0-12 10-22 22-22h384c12 0 22 10 22 22v128c0 12-10 22-22 22zM682 150h-340v84h340z" />
<glyph unicode="&#xe00e;" glyph-name="webhostinghub-glyphs-5" d="M896 128v-192c-4 2-12 6-20 12s-26 20-54 44c-28 24-54 52-82 84-32-8-66-12-100-12-48 0-94 4-134 14-42 10-74 24-100 38s-50 30-68 48c-18 18-30 36-38 50-8 16-12 30-12 42h96c86 0 162 14 230 44 66 30 120 76 160 134 38 58 58 128 58 206 128-64 192-156 192-272 0-96-42-176-128-240zM384 320c-34 0-68 4-100 12-28-32-54-60-80-84-26-22-46-38-58-46l-18-10v192c-86 64-128 144-128 240 0 60 18 116 52 168s80 92 140 122c58 30 122 46 192 46s134-16 194-46c58-30 106-70 140-122s50-108 50-168c0-60-18-114-52-162-34-46-80-82-138-106s-124-36-194-36zM384 896c-58 0-112-12-160-34-50-22-88-54-116-94-30-38-44-82-44-128s14-88 44-128c28-40 66-70 116-94 48-22 102-34 160-34s112 12 160 34c50 24 88 54 118 94 28 40 42 82 42 128s-14 90-42 128c-30 40-68 72-118 94-48 22-102 34-160 34z" />
<glyph unicode="&#xe00f;" glyph-name="webhostinghub-glyphs-6" d="M962 320c0-118-8-204-24-260-16-54-42-86-80-96-2 0-10-2-22-6s-22-6-30-8c-8-2-20-4-34-6s-30-4-46-6c-16-2-34-2-52-2-70 0-112 10-128 32-6 10-14 24-20 44-8 22-12 38-12 52 0 44 10 78 28 98 20 20 52 30 100 30 42 0 64-10 64-32 0 0-2-4-6-8-6-6-14-10-24-16s-22-8-34-8c-10 0-22-6-38-20-18-14-26-28-26-44 0-14 8-28 26-42s40-22 70-22c12 0 24 0 32 0 8 2 16 4 26 6 8 2 16 6 20 10 6 4 10 10 14 18 2 8 4 18 4 30v128c0 10 0 18-2 24-2 8-2 14-4 18s-6 8-10 12c-4 2-8 4-12 6s-8 4-14 4c-8 0-12 0-16 0s-10 0-18 0c-8 0-16 0-20 0-68 0-110 10-128 32l-4 6c0 0-2 2-8 8-4 8-8 10-6 12 0 0-4 6-8 16-6 12-8 18-6 22 0-20-10-44-32-70-20-26-44-46-68-64-26-18-46-26-60-26h-96c-20 0-46 12-76 36-32 24-58 52-82 84-22 30-34 54-34 72v256c0 18 6 34 18 46 10 12 26 18 46 18h128c14 0 28 8 42 22 14 16 22 30 22 42v128c0 20 8 34 26 46 16 12 42 18 78 18 38 0 74-6 108-20 32-12 58-26 76-44 48 0 84-2 110-4 26 0 54-4 84-8s50-12 62-20c18-14 32-26 42-34 8-8 18-18 28-32 10-12 16-26 20-42 4-14 6-32 6-52zM770 576c-18 0-32-6-44-20-14-12-20-26-20-44l104-52c16 14 24 30 24 52 0 18-6 32-18 44-12 14-28 20-46 20zM226 768h-160c-2 4 8 18 28 44 18 26 36 48 54 66 16 18 36 36 62 56 24 20 40 28 46 26l2-4v-156c0-8-2-16-8-22s-14-10-24-10z" />
<glyph unicode="&#xe010;" glyph-name="webhostinghub-glyphs-72" d="M678 128h-332c-32 22-60 48-88 76-24-8-46-12-66-12-54 0-98 18-136 56s-56 84-56 136c0 42 12 80 38 112 24 34 56 56 94 70 0 4 2 8 2 10h758c2-24 4-66 4-128 0-30-6-62-20-94s-34-64-56-92c-22-28-46-52-70-74s-48-42-72-60zM128 448c0 10 0 26 2 46-20-10-36-26-48-46s-18-40-18-64c0-36 12-66 38-90 24-26 54-38 90-38 2 0 8 0 16 2-54 68-80 130-80 190zM576 768c0-16 4-34 10-56 26-18 42-42 50-72h-64c-2 10-2 18-4 24-38 26-56 60-56 104 0 36 12 66 38 90 24 26 54 38 90 38 10 0 20-2 32-4-28-8-50-22-68-46-18-22-28-48-28-78zM384 832c0-16 4-34 10-56 36-26 54-60 54-104 0-10-2-20-4-32h-64c2 12 4 22 4 32 0 16-2 34-8 56-38 26-56 60-56 104 0 36 12 66 38 90 24 26 54 38 90 38 10 0 20-2 32-4-28-8-50-22-68-46-18-22-28-48-28-78zM768-64h-512c-36 0-76 8-116 22s-74 32-100 52c-26 20-40 38-40 54h1024c0-16-14-34-40-54s-60-38-100-52c-40-14-80-22-116-22z" />
<glyph unicode="&#xe011;" glyph-name="webhostinghub-glyphs-7" d="M960 448h-384v-448c0-18-6-32-18-46-12-12-28-18-46-18s-34 6-46 18c-12 14-18 28-18 46v448h-192c-10 0-18 2-22 8-6 2-10 4-12 6l-206 142c-10 10-16 22-16 36s6 26 16 36l206 142c2 2 6 4 14 6 4 6 10 8 20 8h14c12 0 24 0 38 0h140v64c0 18 6 32 18 44 12 14 28 20 46 20s34-6 46-20c12-12 18-26 18-44v-64h384c18 0 32-6 46-20 12-12 18-26 18-44v-256c0-18-6-34-18-46-14-12-28-18-46-18z" />
<glyph unicode="&#xe012;" glyph-name="music-speaker-streamline" d="M938 832c0-24-18-42-42-42s-42 18-42 42c0 24 18 42 42 42s42-18 42-42zM170 832c0-24-18-42-42-42s-42 18-42 42c0 24 18 42 42 42s42-18 42-42zM938 64c0-24-18-42-42-42s-42 18-42 42c0 24 18 42 42 42s42-18 42-42zM170 64c0-24-18-42-42-42s-42 18-42 42c0 24 18 42 42 42s42-18 42-42zM512 554c-58 0-106-48-106-106s48-106 106-106c58 0 106 48 106 106s-48 106-106 106zM512 384c-36 0-64 28-64 64s28 64 64 64c36 0 64-28 64-64s-28-64-64-64zM512 832c-212 0-384-172-384-384s172-384 384-384c212 0 384 172 384 384s-172 384-384 384zM512 106c-188 0-342 154-342 342s154 342 342 342c188 0 342-154 342-342s-154-342-342-342zM922 220c38 70 60 148 60 228s-22 158-60 228l64 66c24 24 38 56 38 90s-14 66-38 90c-24 24-56 38-90 38s-66-14-90-38l-66-64c-70 38-148 60-228 60s-158-22-228-60l-66 64c-24 24-56 38-90 38s-66-14-90-38c-24-24-38-56-38-90s14-66 38-90l64-66c-38-70-60-148-60-228s22-158 60-228l-64-66c-24-24-38-56-38-90s14-66 38-90c24-24 56-38 90-38s66 14 90 38l66 64c70-38 148-60 228-60s158 22 228 60l66-64c24-24 56-38 90-38s66 14 90 38c24 24 38 56 38 90s-14 66-38 90zM956 4c-16-16-38-26-60-26s-44 10-60 26l-88 88-16-8c-66-42-142-62-220-62s-154 20-220 62l-16 8-88-88c-16-16-38-26-60-26s-44 10-60 26c-16 16-26 38-26 60s10 44 26 60l88 88-8 16c-42 66-62 142-62 220s20 154 62 220l8 16-88 88c-16 16-26 38-26 60s10 44 26 60c16 16 38 26 60 26s44-10 60-26l88-88 16 8c66 42 142 62 220 62s154-20 220-62l16-8 88 88c16 16 38 26 60 26s44-10 60-26c16-16 26-38 26-60s-10-44-26-60l-88-88 8-16c42-66 62-142 62-220s-20-154-62-220l-8-16 88-88c16-16 26-38 26-60s-10-44-26-60z" />
<glyph unicode="&#xe013;" glyph-name="painting-pallet-streamline" d="M534 938c-248 0-448-230-448-512 0-352 298-470 434-470v0c30 0 68 4 88 28 10 12 14 26 10 42-22 106-4 174 18 202 8 10 16 14 26 14 18 0 42-18 62-50 28-40 60-60 92-60 102 0 166 194 166 294 0 298-190 512-448 512zM816 174c-22 0-42 24-56 44-38 54-74 66-98 66-22 0-44-10-60-30-36-44-46-134-26-236 2-4 0-6 0-6-6-6-24-14-56-14v0c-122 0-392 108-392 428 0 260 182 470 406 470 234 0 404-198 404-470 0-102-64-252-122-252zM406 298c-60 0-108-48-108-106s48-106 108-106c58 0 106 48 106 106s-48 106-106 106zM406 128c-36 0-64 28-64 64s28 64 64 64c34 0 64-28 64-64s-30-64-64-64zM362 470c0 22-8 44-24 60s-38 24-60 24c-24 0-44-8-60-24-18-16-26-38-26-60 0-48 38-86 86-86 0 0 0 0 0 0 22 0 44 8 60 26 16 16 24 36 24 60zM308 440c-8-8-20-14-30-14v0c-24 0-44 20-44 44 0 10 6 22 14 30s18 12 30 12c10 0 22-4 30-12s12-20 12-30c0-12-4-22-12-30zM384 576c0 0 0 0 0 0 22 0 44 8 60 26 16 16 26 36 26 60 0 22-10 44-26 60s-38 24-60 24c-22 0-44-8-60-24s-26-38-26-60c0-48 38-86 86-86zM354 692c8 8 18 12 30 12s22-4 30-12c8-8 12-20 12-30 0-12-4-22-12-30s-18-14-30-14v0c-24 0-42 20-42 44 0 10 4 22 12 30zM576 832c-22 0-44-8-60-26-16-16-26-36-26-60 0-46 38-84 86-84 0 0 0 0 0 0 22 0 44 8 60 24s26 38 26 60c0 24-10 44-26 60-16 18-38 26-60 26zM606 716c-8-8-18-12-30-12v0c-24 0-42 20-42 42 0 12 4 22 12 30s18 14 30 14c12 0 22-6 30-14s12-18 12-30c0-10-4-22-12-30zM768 682c-22 0-44-8-60-24s-26-38-26-60c0-48 38-86 86-86 0 0 0 0 0 0 22 0 44 8 60 26 16 16 26 36 26 60 0 22-10 44-26 60s-38 24-60 24zM798 568c-8-8-18-14-30-14v0c-24 0-42 20-42 44 0 10 4 22 12 30s18 12 30 12c12 0 22-4 30-12s12-20 12-30c0-12-4-22-12-30z" />
<glyph unicode="&#xe014;" glyph-name="arrows-anticlockwise" d="M512 960c-282 0-512-230-512-512 0-108 32-210 96-298l70-70h-134v-32h176l16 16v176h-32v-142l-72 72c-58 82-88 178-88 278 0 264 216 480 480 480s480-216 480-480c0-264-216-480-480-480v-32c282 0 512 230 512 512s-230 512-512 512z" />
</font>
</defs>
</svg>
